<?xml version="1.0" encoding="UTF-8" standalone="no"?>
<!-- Created with Inkscape (http://www.inkscape.org/) -->

<svg
   xmlns:dc="http://purl.org/dc/elements/1.1/"
   xmlns:cc="http://creativecommons.org/ns#"
   xmlns:rdf="http://www.w3.org/1999/02/22-rdf-syntax-ns#"
   xmlns:svg="http://www.w3.org/2000/svg"
   xmlns="http://www.w3.org/2000/svg"
   xmlns:xlink="http://www.w3.org/1999/xlink"
   xmlns:sodipodi="http://sodipodi.sourceforge.net/DTD/sodipodi-0.dtd"
   xmlns:inkscape="http://www.inkscape.org/namespaces/inkscape"
   width="34"
   height="34"
   id="svg6278"
   version="1.1"
   inkscape:version="0.47 r22583"
   sodipodi:docname="power_button_black.svg">
  <defs
     id="defs6280">
    <inkscape:perspective
       sodipodi:type="inkscape:persp3d"
       inkscape:vp_x="0 : 526.18109 : 1"
       inkscape:vp_y="0 : 1000 : 0"
       inkscape:vp_z="744.09448 : 526.18109 : 1"
       inkscape:persp3d-origin="372.04724 : 350.78739 : 1"
       id="perspective6286" />
    <inkscape:perspective
       id="perspective6213"
       inkscape:persp3d-origin="0.5 : 0.33333333 : 1"
       inkscape:vp_z="1 : 0.5 : 1"
       inkscape:vp_y="0 : 1000 : 0"
       inkscape:vp_x="0 : 0.5 : 1"
       sodipodi:type="inkscape:persp3d" />
    <radialGradient
       inkscape:collect="always"
       xlink:href="#linearGradient6152"
       id="radialGradient6158"
       cx="-79.366173"
       cy="78.383865"
       fx="-79.366173"
       fy="78.383865"
       r="3.5991089"
       gradientTransform="matrix(1.5308677,1.2916372,-2.1866817,2.5916882,646.39067,446.15944)"
       gradientUnits="userSpaceOnUse" />
    <linearGradient
       inkscape:collect="always"
       id="linearGradient6152">
      <stop
         style="stop-color:#ffffff;stop-opacity:1;"
         offset="0"
         id="stop6154" />
      <stop
         style="stop-color:#ffffff;stop-opacity:0;"
         offset="1"
         id="stop6156" />
    </linearGradient>
    <filter
       color-interpolation-filters="sRGB"
       inkscape:collect="always"
       id="filter6164">
      <feGaussianBlur
         inkscape:collect="always"
         stdDeviation="0.061617677"
         id="feGaussianBlur6166" />
    </filter>
    <radialGradient
       inkscape:collect="always"
       xlink:href="#linearGradient6102"
       id="radialGradient6108"
       cx="-66.436394"
       cy="71.562454"
       fx="-66.436394"
       fy="71.562454"
       r="1.6031899"
       gradientTransform="matrix(0.99933088,0.03657579,-0.12719005,3.4751113,441.91472,294.71537)"
       gradientUnits="userSpaceOnUse" />
    <linearGradient
       inkscape:collect="always"
       id="linearGradient6102">
      <stop
         style="stop-color:#ffffff;stop-opacity:1;"
         offset="0"
         id="stop6104" />
      <stop
         style="stop-color:#ffffff;stop-opacity:0;"
         offset="1"
         id="stop6106" />
    </linearGradient>
    <filter
       color-interpolation-filters="sRGB"
       inkscape:collect="always"
       id="filter6114">
      <feGaussianBlur
         inkscape:collect="always"
         stdDeviation="0.01708345"
         id="feGaussianBlur6116" />
    </filter>
    <radialGradient
       inkscape:collect="always"
       xlink:href="#linearGradient6048"
       id="radialGradient6098"
       cx="-71.290398"
       cy="70.93985"
       fx="-71.290398"
       fy="70.93985"
       r="1.8178"
       gradientTransform="matrix(0.99939122,0.03488814,-0.15614592,4.4728914,443.89071,224.25367)"
       gradientUnits="userSpaceOnUse" />
    <linearGradient
       id="linearGradient6048">
      <stop
         style="stop-color:#ffffff;stop-opacity:1;"
         offset="0"
         id="stop6050" />
      <stop
         style="stop-color:#0dee1b;stop-opacity:0;"
         offset="1"
         id="stop6052" />
    </linearGradient>
    <filter
       color-interpolation-filters="sRGB"
       inkscape:collect="always"
       id="filter6088">
      <feGaussianBlur
         inkscape:collect="always"
         stdDeviation="0.02825"
         id="feGaussianBlur6090" />
    </filter>
    <radialGradient
       inkscape:collect="always"
       xlink:href="#linearGradient6048"
       id="radialGradient6084"
       cx="-42.685089"
       cy="104.59784"
       fx="-42.685089"
       fy="104.59784"
       r="10.385892"
       gradientTransform="matrix(0.19256895,3.6810743e-7,-3.1289135e-6,1.6368363,379.07729,382.29552)"
       gradientUnits="userSpaceOnUse" />
    <linearGradient
       id="linearGradient6236">
      <stop
         style="stop-color:#ffffff;stop-opacity:1;"
         offset="0"
         id="stop6238" />
      <stop
         style="stop-color:#0dee1b;stop-opacity:0;"
         offset="1"
         id="stop6240" />
    </linearGradient>
    <radialGradient
       inkscape:collect="always"
       xlink:href="#linearGradient6048"
       id="radialGradient6054"
       cx="-49.685101"
       cy="95.677238"
       fx="-49.685101"
       fy="95.677238"
       r="1.7536834"
       gradientTransform="matrix(1,0,0,3.5145623,413.54224,209.24142)"
       gradientUnits="userSpaceOnUse" />
    <linearGradient
       id="linearGradient6243">
      <stop
         style="stop-color:#ffffff;stop-opacity:1;"
         offset="0"
         id="stop6245" />
      <stop
         style="stop-color:#0dee1b;stop-opacity:0;"
         offset="1"
         id="stop6247" />
    </linearGradient>
    <filter
       color-interpolation-filters="sRGB"
       inkscape:collect="always"
       id="filter6017">
      <feGaussianBlur
         inkscape:collect="always"
         stdDeviation="0.1575"
         id="feGaussianBlur6019" />
    </filter>
    <filter
       color-interpolation-filters="sRGB"
       inkscape:collect="always"
       id="filter6003">
      <feGaussianBlur
         inkscape:collect="always"
         stdDeviation="0.1053125"
         id="feGaussianBlur6005" />
    </filter>
    <radialGradient
       gradientTransform="translate(432.85714,469.50504)"
       inkscape:collect="always"
       xlink:href="#linearGradient5988"
       id="radialGradient5994"
       cx="-70"
       cy="80"
       fx="-70"
       fy="80"
       r="15"
       gradientUnits="userSpaceOnUse" />
    <linearGradient
       id="linearGradient5988">
      <stop
         style="stop-color:#020202;stop-opacity:0;"
         offset="0"
         id="stop5990" />
      <stop
         id="stop5996"
         offset="0.89999998"
         style="stop-color:#262626;stop-opacity:0.49803922;" />
      <stop
         style="stop-color:#c4c4c4;stop-opacity:0.8174603;"
         offset="1"
         id="stop5992" />
    </linearGradient>
    <radialGradient
       inkscape:collect="always"
       xlink:href="#linearGradient6191"
       id="radialGradient6197"
       cx="-87.5"
       cy="62.5"
       fx="-87.5"
       fy="62.5"
       r="2.5"
       gradientUnits="userSpaceOnUse" />
    <linearGradient
       id="linearGradient6191">
      <stop
         style="stop-color:#000000;stop-opacity:1;"
         offset="0"
         id="stop6193" />
      <stop
         id="stop6203"
         offset="0.36962926"
         style="stop-color:#000000;stop-opacity:1;" />
      <stop
         id="stop6199"
         offset="0.84275472"
         style="stop-color:#a6a6a6;stop-opacity:1;" />
      <stop
         style="stop-color:#353535;stop-opacity:1;"
         offset="0.88689375"
         id="stop6201" />
      <stop
         style="stop-color:#000000;stop-opacity:1;"
         offset="1"
         id="stop6195" />
    </linearGradient>
    <radialGradient
       r="2.5"
       fy="62.5"
       fx="-87.5"
       cy="62.5"
       cx="-87.5"
       gradientUnits="userSpaceOnUse"
       id="radialGradient6276"
       xlink:href="#linearGradient6191"
       inkscape:collect="always" />
  </defs>
  <sodipodi:namedview
     id="base"
     pagecolor="#ffffff"
     bordercolor="#666666"
     borderopacity="1.0"
     inkscape:pageopacity="0.0"
     inkscape:pageshadow="2"
     inkscape:zoom="12.218643"
     inkscape:cx="18.438534"
     inkscape:cy="19.028405"
     inkscape:document-units="px"
     inkscape:current-layer="layer1"
     showgrid="false"
     inkscape:window-width="1413"
     inkscape:window-height="1094"
     inkscape:window-x="0"
     inkscape:window-y="24"
     inkscape:window-maximized="0" />
  <metadata
     id="metadata6283">
    <rdf:RDF>
      <cc:Work
         rdf:about="">
        <dc:format>image/svg+xml</dc:format>
        <dc:type
           rdf:resource="http://purl.org/dc/dcmitype/StillImage" />
        <dc:title />
      </cc:Work>
    </rdf:RDF>
  </metadata>
  <g
     inkscape:label="Layer 1"
     inkscape:groupmode="layer"
     id="layer1"
     transform="translate(-345.85714,-532.50504)">
    <path
       sodipodi:type="arc"
       style="fill:url(#radialGradient6276);fill-opacity:1;stroke:none"
       id="path6189"
       sodipodi:cx="-87.5"
       sodipodi:cy="62.5"
       sodipodi:rx="2.5"
       sodipodi:ry="2.5"
       d="m -85,62.5 c 0,1.380712 -1.119288,2.5 -2.5,2.5 -1.380712,0 -2.5,-1.119288 -2.5,-2.5 0,-1.380712 1.119288,-2.5 2.5,-2.5 1.380712,0 2.5,1.119288 2.5,2.5 z"
       transform="matrix(6.8,0,0,6.8,957.85714,124.50504)" />
    <path
       transform="matrix(6,0,0,6,857.85714,144.50504)"
       d="m -80,67.5 c 0,1.380712 -1.119288,2.5 -2.5,2.5 -1.380712,0 -2.5,-1.119288 -2.5,-2.5 0,-1.380712 1.119288,-2.5 2.5,-2.5 1.380712,0 2.5,1.119288 2.5,2.5 z"
       sodipodi:ry="2.5"
       sodipodi:rx="2.5"
       sodipodi:cy="67.5"
       sodipodi:cx="-82.5"
       id="path5979"
       style="fill:#0ac100;fill-opacity:1;stroke:none"
       sodipodi:type="arc" />
    <path
       style="fill:#000000;fill-opacity:1;stroke:none"
       d="m 362.85714,534.50504 c -8.28427,0 -15,6.71573 -15,15 0,8.28427 6.71573,15 15,15 8.28427,0 15,-6.71573 15,-15 0,-8.28427 -6.71573,-15 -15,-15 z m -1.6875,3.1875 3.5,0 0,12.3125 -3.5,0 0,-12.3125 z m -1.46875,2.21875 0,3.71875 c -2.21546,1.16398 -3.75001,3.45172 -3.75,6.125 0,3.83905 3.1297,6.96876 6.96875,6.96875 3.83905,0 6.96876,-3.12971 6.96875,-6.96875 0,-2.67482 -1.56526,-4.96139 -3.78125,-6.125 l 0,-3.71875 c 4.1533,1.35577 7.18749,5.23559 7.1875,9.84375 0,5.73437 -4.64062,10.37498 -10.375,10.375 -5.73437,-10e-6 -10.40624,-4.64063 -10.40625,-10.375 10e-6,-4.60767 3.03667,-8.48712 7.1875,-9.84375 z"
       id="path5973" />
    <path
       style="fill:url(#radialGradient5994);fill-opacity:1;stroke:none"
       d="m 362.85714,534.50504 c -8.28427,0 -15,6.71573 -15,15 0,8.28427 6.71573,15 15,15 8.28427,0 15,-6.71573 15,-15 0,-8.28427 -6.71573,-15 -15,-15 z m 0,1.5 c 7.45585,0 13.5,6.04416 13.5,13.5 0,7.45584 -6.04415,13.5 -13.5,13.5 -7.45584,0 -13.5,-6.04416 -13.5,-13.5 0,-7.45584 6.04416,-13.5 13.5,-13.5 z"
       id="path5983" />
    <path
       style="fill:#cccccc;fill-opacity:0.47916667;stroke:none;filter:url(#filter6003)"
       d="m 363.05714,534.70454 c -8.28427,0 -15,6.71573 -15,15 0,2.15577 0.46242,4.20987 1.28125,6.0625 -0.17981,-0.991 -0.28125,-2.01965 -0.28125,-3.0625 0,-9.38884 7.61116,-17 17,-17 1.04286,0 2.07151,0.10144 3.0625,0.28125 -1.85263,-0.81883 -3.90673,-1.28125 -6.0625,-1.28125 z"
       id="path5998" />
    <path
       style="fill:#cccccc;fill-opacity:0.47916667;stroke:none;filter:url(#filter6017)"
       d="m 359.85714,537.50504 c -4.0593,2.41104 -7.68505,5.47243 -9,12 0.58992,-0.38221 1.18115,-0.76484 1.84375,-1.09375 0.41986,-3.49415 2.58632,-6.43391 5.59375,-7.96875 0.38284,-1.0642 0.90158,-2.04545 1.5625,-2.9375 z m -2.25,7.78125 c -0.52976,0.64573 -0.91916,1.4098 -1.1875,2.21875 0.44902,-0.0193 0.9146,-0.0349 1.4375,0 -0.13749,-0.77734 -0.21747,-1.50639 -0.25,-2.21875 z"
       id="path6007" />
    <path
       style="fill:url(#radialGradient6054);fill-opacity:1;fill-rule:evenodd;stroke:none"
       d="m 361.15714,537.60518 0,12.32686 3.50737,0 0,-12.32686 -3.50737,0 z"
       id="path5977-7" />
    <path
       style="fill:url(#radialGradient6084);fill-opacity:1;fill-rule:evenodd;stroke:none"
       d="m 359.65711,539.89309 c -4.15083,1.35663 -7.16796,5.23339 -7.16797,9.84106 10e-6,5.73437 4.65152,10.38588 10.3859,10.38589 5.73437,-2e-5 10.38588,-4.65152 10.38589,-10.38589 -10e-6,-4.60816 -3.0317,-8.48529 -7.185,-9.84106 l 0,3.71168 c 2.21599,1.16361 3.76276,3.45457 3.76276,6.12938 1e-5,3.83904 -3.1246,6.96365 -6.96365,6.96365 -3.83906,10e-6 -6.96366,-3.1246 -6.96366,-6.96365 -1e-5,-2.67328 1.53027,-4.9654 3.74573,-6.12938 l 0,-3.71168 z"
       id="path5975-1" />
    <path
       style="fill:url(#radialGradient6098);fill-opacity:1;stroke:none;filter:url(#filter6088)"
       d="m 361.15714,537.70504 0,7.8 0.7,-7 2.8,-0.8 -3.5,0 z"
       id="path6086"
       sodipodi:nodetypes="ccccc" />
    <path
       style="fill:url(#radialGradient6108);fill-opacity:1;stroke:none;filter:url(#filter6114)"
       d="m 366.10714,543.60204 -0.037,-3.627 c 1.22265,0.23916 2.21036,0.9482 3.20638,1.64059 l -2.50727,-0.66229 -0.66211,2.6487 z"
       id="path6100"
       sodipodi:nodetypes="ccccc" />
    <path
       style="fill:url(#radialGradient6158);fill-opacity:1;stroke:none;filter:url(#filter6164)"
       d="m 359.74091,541.50659 -0.11652,-1.57302 c -7.66495,2.35009 -9.40376,12.28731 -3.75776,17.44885 -6.06777,-7.64551 -0.94121,-15.8194 3.87428,-15.87583 z"
       id="path6118"
       sodipodi:nodetypes="cccc" />
  </g>
</svg>
