G04 #@! TF.FileFunction,Paste,Bot*
%FSLAX46Y46*%
G04 Gerber Fmt 4.6, Leading zero omitted, Abs format (unit mm)*
G04 Created by KiCad (PCBNEW 4.0.5) date Mon Feb  6 03:04:20 2017*
%MOMM*%
%LPD*%
G01*
G04 APERTURE LIST*
%ADD10C,0.100000*%
%ADD11R,1.500000X1.300000*%
%ADD12R,0.800100X1.800860*%
%ADD13R,1.300000X1.500000*%
G04 APERTURE END LIST*
D10*
D11*
X88091000Y-68961000D03*
X85391000Y-68961000D03*
D12*
X101280000Y-83416140D03*
X99380000Y-83416140D03*
X100330000Y-80413860D03*
X80896500Y-64048640D03*
X78996500Y-64048640D03*
X79946500Y-61046360D03*
X101343500Y-76494640D03*
X99443500Y-76494640D03*
X100393500Y-73492360D03*
X81785500Y-76240640D03*
X79885500Y-76240640D03*
X80835500Y-73238360D03*
X100840500Y-61554360D03*
X102740500Y-61554360D03*
X101790500Y-64556640D03*
X81595000Y-83543140D03*
X79695000Y-83543140D03*
X80645000Y-80540860D03*
X82103000Y-91163140D03*
X80203000Y-91163140D03*
X81153000Y-88160860D03*
X101153000Y-91036140D03*
X99253000Y-91036140D03*
X100203000Y-88033860D03*
D13*
X103695500Y-76343500D03*
X103695500Y-73643500D03*
X77533500Y-76089500D03*
X77533500Y-73389500D03*
X77597000Y-80946000D03*
X77597000Y-83646000D03*
X103759000Y-80692000D03*
X103759000Y-83392000D03*
X77470000Y-88312000D03*
X77470000Y-91012000D03*
X103759000Y-88185000D03*
X103759000Y-90885000D03*
D11*
X96219000Y-68961000D03*
X93519000Y-68961000D03*
X78596500Y-68135500D03*
X81296500Y-68135500D03*
X103140500Y-68135500D03*
X100440500Y-68135500D03*
M02*
