M48
;DRILL file {KiCad 4.0.5} date Mon Feb  6 23:01:20 2017
;FORMAT={-:-/ absolute / inch / decimal}
FMAT,2
INCH,TZ
T1C0.039
T2C0.040
%
G90
G05
M72
T1
X3.395Y-3.7575
X3.395Y-3.8575
X3.395Y-3.9675
X3.395Y-4.0675
X3.495Y-3.7575
X3.495Y-3.8575
X3.495Y-3.9675
X3.495Y-4.0675
X3.595Y-3.7575
X3.595Y-3.8575
X3.595Y-3.9675
X3.595Y-4.0675
X3.695Y-3.7575
X3.695Y-3.8575
X3.695Y-3.9675
X3.695Y-4.0675
X3.795Y-3.7575
X3.795Y-3.8575
X3.795Y-3.9675
X3.795Y-4.0675
X3.895Y-3.7575
X3.895Y-3.8575
X3.895Y-3.9675
X3.895Y-4.0675
X3.995Y-3.7575
X3.995Y-3.8575
X3.995Y-3.9675
X3.995Y-4.0675
X4.095Y-3.7575
X4.095Y-3.8575
X4.095Y-3.9675
X4.095Y-4.0675
T2
X2.825Y-2.255
X2.825Y-2.355
X2.825Y-2.455
X2.825Y-2.555
X2.825Y-2.655
X2.825Y-2.755
X2.825Y-2.855
X2.825Y-2.955
X2.825Y-3.055
X2.825Y-3.155
X2.825Y-3.255
X2.825Y-3.355
X2.825Y-3.455
X2.825Y-3.555
X2.825Y-3.655
X2.825Y-3.755
X2.825Y-3.855
X2.825Y-3.955
X2.825Y-4.055
X2.825Y-4.155
X2.925Y-2.255
X2.925Y-2.355
X2.925Y-2.455
X2.925Y-2.555
X2.925Y-2.655
X2.925Y-2.755
X2.925Y-2.855
X2.925Y-2.955
X2.925Y-3.055
X2.925Y-3.155
X2.925Y-3.255
X2.925Y-3.355
X2.925Y-3.455
X2.925Y-3.555
X2.925Y-3.655
X2.925Y-3.755
X2.925Y-3.855
X2.925Y-3.955
X2.925Y-4.055
X2.925Y-4.155
X3.055Y-3.755
X3.055Y-3.855
X3.3325Y-2.8925
X3.3325Y-2.9925
X3.34Y-3.175
X3.34Y-3.275
X3.3425Y-3.4825
X3.3425Y-3.5825
X3.3475Y-2.4225
X3.3475Y-2.5225
X3.3475Y-2.6225
X3.4625Y-2.8925
X3.4625Y-2.9925
X3.47Y-3.175
X3.47Y-3.275
X3.4725Y-3.4825
X3.4725Y-3.5825
X3.4775Y-2.4225
X3.4775Y-2.5225
X3.4775Y-2.6225
X3.6675Y-3.4825
X3.6675Y-3.5825
X3.6775Y-2.4225
X3.6775Y-2.5225
X3.6775Y-2.6225
X3.6775Y-3.1825
X3.6775Y-3.2825
X3.6825Y-2.8925
X3.6825Y-2.9925
X3.7975Y-3.4825
X3.7975Y-3.5825
X3.8075Y-2.4225
X3.8075Y-2.5225
X3.8075Y-2.6225
X3.8075Y-3.1825
X3.8075Y-3.2825
X3.8125Y-2.8925
X3.8125Y-2.9925
X4.225Y-2.255
X4.225Y-2.355
X4.225Y-2.455
X4.225Y-2.555
X4.225Y-2.655
X4.225Y-2.755
X4.225Y-2.855
X4.225Y-2.955
X4.225Y-3.055
X4.225Y-3.155
X4.225Y-3.255
X4.225Y-3.355
X4.225Y-3.455
X4.225Y-3.555
X4.225Y-3.655
X4.225Y-3.755
X4.225Y-3.855
X4.225Y-3.955
X4.225Y-4.055
X4.225Y-4.155
X4.325Y-2.255
X4.325Y-2.355
X4.325Y-2.455
X4.325Y-2.555
X4.325Y-2.655
X4.325Y-2.755
X4.325Y-2.855
X4.325Y-2.955
X4.325Y-3.055
X4.325Y-3.155
X4.325Y-3.255
X4.325Y-3.355
X4.325Y-3.455
X4.325Y-3.555
X4.325Y-3.655
X4.325Y-3.755
X4.325Y-3.855
X4.325Y-3.955
X4.325Y-4.055
X4.325Y-4.155
T0
M30
