G04 #@! TF.FileFunction,Legend,Bot*
%FSLAX46Y46*%
G04 Gerber Fmt 4.6, Leading zero omitted, Abs format (unit mm)*
G04 Created by KiCad (PCBNEW 4.0.5) date Mon Feb  6 23:02:00 2017*
%MOMM*%
%LPD*%
G01*
G04 APERTURE LIST*
%ADD10C,0.100000*%
%ADD11C,0.300000*%
%ADD12C,0.150000*%
G04 APERTURE END LIST*
D10*
D11*
X87736643Y-104779071D02*
X87379500Y-106279071D01*
X87093786Y-105207643D01*
X86808072Y-106279071D01*
X86450929Y-104779071D01*
X85879500Y-106279071D02*
X85879500Y-104779071D01*
X84665214Y-105493357D02*
X85165214Y-105493357D01*
X85165214Y-106279071D02*
X85165214Y-104779071D01*
X84450928Y-104779071D01*
X83879500Y-106279071D02*
X83879500Y-104779071D01*
X82093786Y-104707643D02*
X83379500Y-106636214D01*
X81093785Y-105493357D02*
X80879499Y-105564786D01*
X80808071Y-105636214D01*
X80736642Y-105779071D01*
X80736642Y-105993357D01*
X80808071Y-106136214D01*
X80879499Y-106207643D01*
X81022357Y-106279071D01*
X81593785Y-106279071D01*
X81593785Y-104779071D01*
X81093785Y-104779071D01*
X80950928Y-104850500D01*
X80879499Y-104921929D01*
X80808071Y-105064786D01*
X80808071Y-105207643D01*
X80879499Y-105350500D01*
X80950928Y-105421929D01*
X81093785Y-105493357D01*
X81593785Y-105493357D01*
X80308071Y-104779071D02*
X79450928Y-104779071D01*
X79879499Y-106279071D02*
X79879499Y-104779071D01*
X103070858Y-55056657D02*
X103570858Y-55056657D01*
X103570858Y-55842371D02*
X103570858Y-54342371D01*
X102856572Y-54342371D01*
X102070858Y-55842371D02*
X102213716Y-55770943D01*
X102285144Y-55699514D01*
X102356573Y-55556657D01*
X102356573Y-55128086D01*
X102285144Y-54985229D01*
X102213716Y-54913800D01*
X102070858Y-54842371D01*
X101856573Y-54842371D01*
X101713716Y-54913800D01*
X101642287Y-54985229D01*
X101570858Y-55128086D01*
X101570858Y-55556657D01*
X101642287Y-55699514D01*
X101713716Y-55770943D01*
X101856573Y-55842371D01*
X102070858Y-55842371D01*
X100928001Y-55842371D02*
X100928001Y-54842371D01*
X100928001Y-55128086D02*
X100856573Y-54985229D01*
X100785144Y-54913800D01*
X100642287Y-54842371D01*
X100499430Y-54842371D01*
X98856573Y-55842371D02*
X98856573Y-54342371D01*
X97999430Y-55842371D01*
X97999430Y-54342371D01*
X96713716Y-55770943D02*
X96856573Y-55842371D01*
X97142287Y-55842371D01*
X97285144Y-55770943D01*
X97356573Y-55628086D01*
X97356573Y-55056657D01*
X97285144Y-54913800D01*
X97142287Y-54842371D01*
X96856573Y-54842371D01*
X96713716Y-54913800D01*
X96642287Y-55056657D01*
X96642287Y-55199514D01*
X97356573Y-55342371D01*
X96142287Y-55842371D02*
X95356573Y-54842371D01*
X96142287Y-54842371D02*
X95356573Y-55842371D01*
X94999430Y-54842371D02*
X94428001Y-54842371D01*
X94785144Y-54342371D02*
X94785144Y-55628086D01*
X94713716Y-55770943D01*
X94570858Y-55842371D01*
X94428001Y-55842371D01*
X94142287Y-54842371D02*
X93570858Y-54842371D01*
X93928001Y-54342371D02*
X93928001Y-55628086D01*
X93856573Y-55770943D01*
X93713715Y-55842371D01*
X93570858Y-55842371D01*
X93070858Y-55842371D02*
X93070858Y-54342371D01*
X92428001Y-55842371D02*
X92428001Y-55056657D01*
X92499430Y-54913800D01*
X92642287Y-54842371D01*
X92856572Y-54842371D01*
X92999430Y-54913800D01*
X93070858Y-54985229D01*
X91713715Y-55842371D02*
X91713715Y-54842371D01*
X91713715Y-54342371D02*
X91785144Y-54413800D01*
X91713715Y-54485229D01*
X91642287Y-54413800D01*
X91713715Y-54342371D01*
X91713715Y-54485229D01*
X90999429Y-54842371D02*
X90999429Y-55842371D01*
X90999429Y-54985229D02*
X90928001Y-54913800D01*
X90785143Y-54842371D01*
X90570858Y-54842371D01*
X90428001Y-54913800D01*
X90356572Y-55056657D01*
X90356572Y-55842371D01*
X88999429Y-54842371D02*
X88999429Y-56056657D01*
X89070858Y-56199514D01*
X89142286Y-56270943D01*
X89285143Y-56342371D01*
X89499429Y-56342371D01*
X89642286Y-56270943D01*
X88999429Y-55770943D02*
X89142286Y-55842371D01*
X89428000Y-55842371D01*
X89570858Y-55770943D01*
X89642286Y-55699514D01*
X89713715Y-55556657D01*
X89713715Y-55128086D01*
X89642286Y-54985229D01*
X89570858Y-54913800D01*
X89428000Y-54842371D01*
X89142286Y-54842371D01*
X88999429Y-54913800D01*
X88213715Y-54342371D02*
X88356572Y-54628086D01*
X87642286Y-55770943D02*
X87499429Y-55842371D01*
X87213714Y-55842371D01*
X87070857Y-55770943D01*
X86999429Y-55628086D01*
X86999429Y-55556657D01*
X87070857Y-55413800D01*
X87213714Y-55342371D01*
X87428000Y-55342371D01*
X87570857Y-55270943D01*
X87642286Y-55128086D01*
X87642286Y-55056657D01*
X87570857Y-54913800D01*
X87428000Y-54842371D01*
X87213714Y-54842371D01*
X87070857Y-54913800D01*
X84356571Y-55699514D02*
X84428000Y-55770943D01*
X84642286Y-55842371D01*
X84785143Y-55842371D01*
X84999428Y-55770943D01*
X85142286Y-55628086D01*
X85213714Y-55485229D01*
X85285143Y-55199514D01*
X85285143Y-54985229D01*
X85213714Y-54699514D01*
X85142286Y-54556657D01*
X84999428Y-54413800D01*
X84785143Y-54342371D01*
X84642286Y-54342371D01*
X84428000Y-54413800D01*
X84356571Y-54485229D01*
X83713714Y-55699514D02*
X83642286Y-55770943D01*
X83713714Y-55842371D01*
X83785143Y-55770943D01*
X83713714Y-55699514D01*
X83713714Y-55842371D01*
X82999428Y-55842371D02*
X82999428Y-54342371D01*
X82999428Y-55056657D02*
X82142285Y-55056657D01*
X82142285Y-55842371D02*
X82142285Y-54342371D01*
X81427999Y-55699514D02*
X81356571Y-55770943D01*
X81427999Y-55842371D01*
X81499428Y-55770943D01*
X81427999Y-55699514D01*
X81427999Y-55842371D01*
X80713713Y-55842371D02*
X80713713Y-54342371D01*
X79999427Y-55699514D02*
X79927999Y-55770943D01*
X79999427Y-55842371D01*
X80070856Y-55770943D01*
X79999427Y-55699514D01*
X79999427Y-55842371D01*
X79285141Y-55842371D02*
X79285141Y-54342371D01*
X78713713Y-54342371D01*
X78570855Y-54413800D01*
X78499427Y-54485229D01*
X78427998Y-54628086D01*
X78427998Y-54842371D01*
X78499427Y-54985229D01*
X78570855Y-55056657D01*
X78713713Y-55128086D01*
X79285141Y-55128086D01*
X77785141Y-55699514D02*
X77713713Y-55770943D01*
X77785141Y-55842371D01*
X77856570Y-55770943D01*
X77785141Y-55699514D01*
X77785141Y-55842371D01*
X99535142Y-58392371D02*
X99535142Y-56892371D01*
X99535142Y-57463800D02*
X99392285Y-57392371D01*
X99106571Y-57392371D01*
X98963714Y-57463800D01*
X98892285Y-57535229D01*
X98820856Y-57678086D01*
X98820856Y-58106657D01*
X98892285Y-58249514D01*
X98963714Y-58320943D01*
X99106571Y-58392371D01*
X99392285Y-58392371D01*
X99535142Y-58320943D01*
X98320856Y-57392371D02*
X97963713Y-58392371D01*
X97606571Y-57392371D02*
X97963713Y-58392371D01*
X98106571Y-58749514D01*
X98177999Y-58820943D01*
X98320856Y-58892371D01*
X95892285Y-58392371D02*
X95892285Y-56892371D01*
X95392285Y-57963800D01*
X94892285Y-56892371D01*
X94892285Y-58392371D01*
X93535142Y-57392371D02*
X93535142Y-58392371D01*
X94177999Y-57392371D02*
X94177999Y-58178086D01*
X94106571Y-58320943D01*
X93963713Y-58392371D01*
X93749428Y-58392371D01*
X93606571Y-58320943D01*
X93535142Y-58249514D01*
X93963713Y-56820943D02*
X93749428Y-57035229D01*
X92820856Y-58392371D02*
X92820856Y-56892371D01*
X92249428Y-56892371D01*
X92106570Y-56963800D01*
X92035142Y-57035229D01*
X91963713Y-57178086D01*
X91963713Y-57392371D01*
X92035142Y-57535229D01*
X92106570Y-57606657D01*
X92249428Y-57678086D01*
X92820856Y-57678086D01*
X90677999Y-57392371D02*
X90677999Y-58392371D01*
X91320856Y-57392371D02*
X91320856Y-58178086D01*
X91249428Y-58320943D01*
X91106570Y-58392371D01*
X90892285Y-58392371D01*
X90749428Y-58320943D01*
X90677999Y-58249514D01*
X91106570Y-56820943D02*
X90892285Y-57035229D01*
X89463713Y-57606657D02*
X89963713Y-57606657D01*
X89963713Y-58392371D02*
X89963713Y-56892371D01*
X89249427Y-56892371D01*
X88606571Y-58320943D02*
X88606571Y-58392371D01*
X88677999Y-58535229D01*
X88749428Y-58606657D01*
X86892285Y-57035229D02*
X86820856Y-56963800D01*
X86677999Y-56892371D01*
X86320856Y-56892371D01*
X86177999Y-56963800D01*
X86106570Y-57035229D01*
X86035142Y-57178086D01*
X86035142Y-57320943D01*
X86106570Y-57535229D01*
X86963713Y-58392371D01*
X86035142Y-58392371D01*
X85106571Y-56892371D02*
X84963714Y-56892371D01*
X84820857Y-56963800D01*
X84749428Y-57035229D01*
X84677999Y-57178086D01*
X84606571Y-57463800D01*
X84606571Y-57820943D01*
X84677999Y-58106657D01*
X84749428Y-58249514D01*
X84820857Y-58320943D01*
X84963714Y-58392371D01*
X85106571Y-58392371D01*
X85249428Y-58320943D01*
X85320857Y-58249514D01*
X85392285Y-58106657D01*
X85463714Y-57820943D01*
X85463714Y-57463800D01*
X85392285Y-57178086D01*
X85320857Y-57035229D01*
X85249428Y-56963800D01*
X85106571Y-56892371D01*
X83178000Y-58392371D02*
X84035143Y-58392371D01*
X83606571Y-58392371D02*
X83606571Y-56892371D01*
X83749428Y-57106657D01*
X83892286Y-57249514D01*
X84035143Y-57320943D01*
X82678000Y-56892371D02*
X81678000Y-56892371D01*
X82320857Y-58392371D01*
D12*
X86141000Y-69836000D02*
X87341000Y-69836000D01*
X87341000Y-68086000D02*
X86141000Y-68086000D01*
X101829820Y-81965800D02*
X101829820Y-81264760D01*
X101829820Y-81264760D02*
X101580900Y-81264760D01*
X99030840Y-81264760D02*
X98830180Y-81264760D01*
X98830180Y-81264760D02*
X98830180Y-81965800D01*
X81446320Y-62598300D02*
X81446320Y-61897260D01*
X81446320Y-61897260D02*
X81197400Y-61897260D01*
X78647340Y-61897260D02*
X78446680Y-61897260D01*
X78446680Y-61897260D02*
X78446680Y-62598300D01*
X101893320Y-75044300D02*
X101893320Y-74343260D01*
X101893320Y-74343260D02*
X101644400Y-74343260D01*
X99094340Y-74343260D02*
X98893680Y-74343260D01*
X98893680Y-74343260D02*
X98893680Y-75044300D01*
X82335320Y-74790300D02*
X82335320Y-74089260D01*
X82335320Y-74089260D02*
X82086400Y-74089260D01*
X79536340Y-74089260D02*
X79335680Y-74089260D01*
X79335680Y-74089260D02*
X79335680Y-74790300D01*
X100290680Y-63004700D02*
X100290680Y-63705740D01*
X100290680Y-63705740D02*
X100539600Y-63705740D01*
X103089660Y-63705740D02*
X103290320Y-63705740D01*
X103290320Y-63705740D02*
X103290320Y-63004700D01*
X82144820Y-82092800D02*
X82144820Y-81391760D01*
X82144820Y-81391760D02*
X81895900Y-81391760D01*
X79345840Y-81391760D02*
X79145180Y-81391760D01*
X79145180Y-81391760D02*
X79145180Y-82092800D01*
X82652820Y-89712800D02*
X82652820Y-89011760D01*
X82652820Y-89011760D02*
X82403900Y-89011760D01*
X79853840Y-89011760D02*
X79653180Y-89011760D01*
X79653180Y-89011760D02*
X79653180Y-89712800D01*
X101702820Y-89585800D02*
X101702820Y-88884760D01*
X101702820Y-88884760D02*
X101453900Y-88884760D01*
X98903840Y-88884760D02*
X98703180Y-88884760D01*
X98703180Y-88884760D02*
X98703180Y-89585800D01*
X102820500Y-74393500D02*
X102820500Y-75593500D01*
X104570500Y-75593500D02*
X104570500Y-74393500D01*
X76658500Y-74139500D02*
X76658500Y-75339500D01*
X78408500Y-75339500D02*
X78408500Y-74139500D01*
X78472000Y-82896000D02*
X78472000Y-81696000D01*
X76722000Y-81696000D02*
X76722000Y-82896000D01*
X104634000Y-82642000D02*
X104634000Y-81442000D01*
X102884000Y-81442000D02*
X102884000Y-82642000D01*
X78345000Y-90262000D02*
X78345000Y-89062000D01*
X76595000Y-89062000D02*
X76595000Y-90262000D01*
X104634000Y-90135000D02*
X104634000Y-88935000D01*
X102884000Y-88935000D02*
X102884000Y-90135000D01*
X94269000Y-69836000D02*
X95469000Y-69836000D01*
X95469000Y-68086000D02*
X94269000Y-68086000D01*
X80546500Y-67260500D02*
X79346500Y-67260500D01*
X79346500Y-69010500D02*
X80546500Y-69010500D01*
X101190500Y-69010500D02*
X102390500Y-69010500D01*
X102390500Y-67260500D02*
X101190500Y-67260500D01*
X88479095Y-69413381D02*
X88812429Y-68937190D01*
X89050524Y-69413381D02*
X89050524Y-68413381D01*
X88669571Y-68413381D01*
X88574333Y-68461000D01*
X88526714Y-68508619D01*
X88479095Y-68603857D01*
X88479095Y-68746714D01*
X88526714Y-68841952D01*
X88574333Y-68889571D01*
X88669571Y-68937190D01*
X89050524Y-68937190D01*
X87526714Y-69413381D02*
X88098143Y-69413381D01*
X87812429Y-69413381D02*
X87812429Y-68413381D01*
X87907667Y-68556238D01*
X88002905Y-68651476D01*
X88098143Y-68699095D01*
X86574333Y-69413381D02*
X87145762Y-69413381D01*
X86860048Y-69413381D02*
X86860048Y-68413381D01*
X86955286Y-68556238D01*
X87050524Y-68651476D01*
X87145762Y-68699095D01*
X86145762Y-69032429D02*
X85383857Y-69032429D01*
X84383857Y-69413381D02*
X84955286Y-69413381D01*
X84669572Y-69413381D02*
X84669572Y-68413381D01*
X84764810Y-68556238D01*
X84860048Y-68651476D01*
X84955286Y-68699095D01*
X100425238Y-82716619D02*
X100520476Y-82669000D01*
X100615714Y-82573762D01*
X100758571Y-82430905D01*
X100853810Y-82383286D01*
X100949048Y-82383286D01*
X100901429Y-82621381D02*
X100996667Y-82573762D01*
X101091905Y-82478524D01*
X101139524Y-82288048D01*
X101139524Y-81954714D01*
X101091905Y-81764238D01*
X100996667Y-81669000D01*
X100901429Y-81621381D01*
X100710952Y-81621381D01*
X100615714Y-81669000D01*
X100520476Y-81764238D01*
X100472857Y-81954714D01*
X100472857Y-82288048D01*
X100520476Y-82478524D01*
X100615714Y-82573762D01*
X100710952Y-82621381D01*
X100901429Y-82621381D01*
X99568095Y-81621381D02*
X100044286Y-81621381D01*
X100091905Y-82097571D01*
X100044286Y-82049952D01*
X99949048Y-82002333D01*
X99710952Y-82002333D01*
X99615714Y-82049952D01*
X99568095Y-82097571D01*
X99520476Y-82192810D01*
X99520476Y-82430905D01*
X99568095Y-82526143D01*
X99615714Y-82573762D01*
X99710952Y-82621381D01*
X99949048Y-82621381D01*
X100044286Y-82573762D01*
X100091905Y-82526143D01*
X80041738Y-63095119D02*
X80136976Y-63047500D01*
X80232214Y-62952262D01*
X80375071Y-62809405D01*
X80470310Y-62761786D01*
X80565548Y-62761786D01*
X80517929Y-62999881D02*
X80613167Y-62952262D01*
X80708405Y-62857024D01*
X80756024Y-62666548D01*
X80756024Y-62333214D01*
X80708405Y-62142738D01*
X80613167Y-62047500D01*
X80517929Y-61999881D01*
X80327452Y-61999881D01*
X80232214Y-62047500D01*
X80136976Y-62142738D01*
X80089357Y-62333214D01*
X80089357Y-62666548D01*
X80136976Y-62857024D01*
X80232214Y-62952262D01*
X80327452Y-62999881D01*
X80517929Y-62999881D01*
X79136976Y-62999881D02*
X79708405Y-62999881D01*
X79422691Y-62999881D02*
X79422691Y-61999881D01*
X79517929Y-62142738D01*
X79613167Y-62237976D01*
X79708405Y-62285595D01*
X100488738Y-75541119D02*
X100583976Y-75493500D01*
X100679214Y-75398262D01*
X100822071Y-75255405D01*
X100917310Y-75207786D01*
X101012548Y-75207786D01*
X100964929Y-75445881D02*
X101060167Y-75398262D01*
X101155405Y-75303024D01*
X101203024Y-75112548D01*
X101203024Y-74779214D01*
X101155405Y-74588738D01*
X101060167Y-74493500D01*
X100964929Y-74445881D01*
X100774452Y-74445881D01*
X100679214Y-74493500D01*
X100583976Y-74588738D01*
X100536357Y-74779214D01*
X100536357Y-75112548D01*
X100583976Y-75303024D01*
X100679214Y-75398262D01*
X100774452Y-75445881D01*
X100964929Y-75445881D01*
X100155405Y-74541119D02*
X100107786Y-74493500D01*
X100012548Y-74445881D01*
X99774452Y-74445881D01*
X99679214Y-74493500D01*
X99631595Y-74541119D01*
X99583976Y-74636357D01*
X99583976Y-74731595D01*
X99631595Y-74874452D01*
X100203024Y-75445881D01*
X99583976Y-75445881D01*
X80930738Y-75287119D02*
X81025976Y-75239500D01*
X81121214Y-75144262D01*
X81264071Y-75001405D01*
X81359310Y-74953786D01*
X81454548Y-74953786D01*
X81406929Y-75191881D02*
X81502167Y-75144262D01*
X81597405Y-75049024D01*
X81645024Y-74858548D01*
X81645024Y-74525214D01*
X81597405Y-74334738D01*
X81502167Y-74239500D01*
X81406929Y-74191881D01*
X81216452Y-74191881D01*
X81121214Y-74239500D01*
X81025976Y-74334738D01*
X80978357Y-74525214D01*
X80978357Y-74858548D01*
X81025976Y-75049024D01*
X81121214Y-75144262D01*
X81216452Y-75191881D01*
X81406929Y-75191881D01*
X80645024Y-74191881D02*
X80025976Y-74191881D01*
X80359310Y-74572833D01*
X80216452Y-74572833D01*
X80121214Y-74620452D01*
X80073595Y-74668071D01*
X80025976Y-74763310D01*
X80025976Y-75001405D01*
X80073595Y-75096643D01*
X80121214Y-75144262D01*
X80216452Y-75191881D01*
X80502167Y-75191881D01*
X80597405Y-75144262D01*
X80645024Y-75096643D01*
X101885738Y-63603119D02*
X101980976Y-63555500D01*
X102076214Y-63460262D01*
X102219071Y-63317405D01*
X102314310Y-63269786D01*
X102409548Y-63269786D01*
X102361929Y-63507881D02*
X102457167Y-63460262D01*
X102552405Y-63365024D01*
X102600024Y-63174548D01*
X102600024Y-62841214D01*
X102552405Y-62650738D01*
X102457167Y-62555500D01*
X102361929Y-62507881D01*
X102171452Y-62507881D01*
X102076214Y-62555500D01*
X101980976Y-62650738D01*
X101933357Y-62841214D01*
X101933357Y-63174548D01*
X101980976Y-63365024D01*
X102076214Y-63460262D01*
X102171452Y-63507881D01*
X102361929Y-63507881D01*
X101314310Y-62507881D02*
X101219071Y-62507881D01*
X101123833Y-62555500D01*
X101076214Y-62603119D01*
X101028595Y-62698357D01*
X100980976Y-62888833D01*
X100980976Y-63126929D01*
X101028595Y-63317405D01*
X101076214Y-63412643D01*
X101123833Y-63460262D01*
X101219071Y-63507881D01*
X101314310Y-63507881D01*
X101409548Y-63460262D01*
X101457167Y-63412643D01*
X101504786Y-63317405D01*
X101552405Y-63126929D01*
X101552405Y-62888833D01*
X101504786Y-62698357D01*
X101457167Y-62603119D01*
X101409548Y-62555500D01*
X101314310Y-62507881D01*
X80740238Y-82843619D02*
X80835476Y-82796000D01*
X80930714Y-82700762D01*
X81073571Y-82557905D01*
X81168810Y-82510286D01*
X81264048Y-82510286D01*
X81216429Y-82748381D02*
X81311667Y-82700762D01*
X81406905Y-82605524D01*
X81454524Y-82415048D01*
X81454524Y-82081714D01*
X81406905Y-81891238D01*
X81311667Y-81796000D01*
X81216429Y-81748381D01*
X81025952Y-81748381D01*
X80930714Y-81796000D01*
X80835476Y-81891238D01*
X80787857Y-82081714D01*
X80787857Y-82415048D01*
X80835476Y-82605524D01*
X80930714Y-82700762D01*
X81025952Y-82748381D01*
X81216429Y-82748381D01*
X79930714Y-82081714D02*
X79930714Y-82748381D01*
X80168810Y-81700762D02*
X80406905Y-82415048D01*
X79787857Y-82415048D01*
X81248238Y-90209619D02*
X81343476Y-90162000D01*
X81438714Y-90066762D01*
X81581571Y-89923905D01*
X81676810Y-89876286D01*
X81772048Y-89876286D01*
X81724429Y-90114381D02*
X81819667Y-90066762D01*
X81914905Y-89971524D01*
X81962524Y-89781048D01*
X81962524Y-89447714D01*
X81914905Y-89257238D01*
X81819667Y-89162000D01*
X81724429Y-89114381D01*
X81533952Y-89114381D01*
X81438714Y-89162000D01*
X81343476Y-89257238D01*
X81295857Y-89447714D01*
X81295857Y-89781048D01*
X81343476Y-89971524D01*
X81438714Y-90066762D01*
X81533952Y-90114381D01*
X81724429Y-90114381D01*
X80438714Y-89114381D02*
X80629191Y-89114381D01*
X80724429Y-89162000D01*
X80772048Y-89209619D01*
X80867286Y-89352476D01*
X80914905Y-89542952D01*
X80914905Y-89923905D01*
X80867286Y-90019143D01*
X80819667Y-90066762D01*
X80724429Y-90114381D01*
X80533952Y-90114381D01*
X80438714Y-90066762D01*
X80391095Y-90019143D01*
X80343476Y-89923905D01*
X80343476Y-89685810D01*
X80391095Y-89590571D01*
X80438714Y-89542952D01*
X80533952Y-89495333D01*
X80724429Y-89495333D01*
X80819667Y-89542952D01*
X80867286Y-89590571D01*
X80914905Y-89685810D01*
X100298238Y-90082619D02*
X100393476Y-90035000D01*
X100488714Y-89939762D01*
X100631571Y-89796905D01*
X100726810Y-89749286D01*
X100822048Y-89749286D01*
X100774429Y-89987381D02*
X100869667Y-89939762D01*
X100964905Y-89844524D01*
X101012524Y-89654048D01*
X101012524Y-89320714D01*
X100964905Y-89130238D01*
X100869667Y-89035000D01*
X100774429Y-88987381D01*
X100583952Y-88987381D01*
X100488714Y-89035000D01*
X100393476Y-89130238D01*
X100345857Y-89320714D01*
X100345857Y-89654048D01*
X100393476Y-89844524D01*
X100488714Y-89939762D01*
X100583952Y-89987381D01*
X100774429Y-89987381D01*
X100012524Y-88987381D02*
X99345857Y-88987381D01*
X99774429Y-89987381D01*
X104147881Y-74826834D02*
X103671690Y-74493500D01*
X104147881Y-74255405D02*
X103147881Y-74255405D01*
X103147881Y-74636358D01*
X103195500Y-74731596D01*
X103243119Y-74779215D01*
X103338357Y-74826834D01*
X103481214Y-74826834D01*
X103576452Y-74779215D01*
X103624071Y-74731596D01*
X103671690Y-74636358D01*
X103671690Y-74255405D01*
X103243119Y-75207786D02*
X103195500Y-75255405D01*
X103147881Y-75350643D01*
X103147881Y-75588739D01*
X103195500Y-75683977D01*
X103243119Y-75731596D01*
X103338357Y-75779215D01*
X103433595Y-75779215D01*
X103576452Y-75731596D01*
X104147881Y-75160167D01*
X104147881Y-75779215D01*
X77985881Y-74572834D02*
X77509690Y-74239500D01*
X77985881Y-74001405D02*
X76985881Y-74001405D01*
X76985881Y-74382358D01*
X77033500Y-74477596D01*
X77081119Y-74525215D01*
X77176357Y-74572834D01*
X77319214Y-74572834D01*
X77414452Y-74525215D01*
X77462071Y-74477596D01*
X77509690Y-74382358D01*
X77509690Y-74001405D01*
X76985881Y-74906167D02*
X76985881Y-75525215D01*
X77366833Y-75191881D01*
X77366833Y-75334739D01*
X77414452Y-75429977D01*
X77462071Y-75477596D01*
X77557310Y-75525215D01*
X77795405Y-75525215D01*
X77890643Y-75477596D01*
X77938262Y-75429977D01*
X77985881Y-75334739D01*
X77985881Y-75049024D01*
X77938262Y-74953786D01*
X77890643Y-74906167D01*
X78049381Y-82129334D02*
X77573190Y-81796000D01*
X78049381Y-81557905D02*
X77049381Y-81557905D01*
X77049381Y-81938858D01*
X77097000Y-82034096D01*
X77144619Y-82081715D01*
X77239857Y-82129334D01*
X77382714Y-82129334D01*
X77477952Y-82081715D01*
X77525571Y-82034096D01*
X77573190Y-81938858D01*
X77573190Y-81557905D01*
X77382714Y-82986477D02*
X78049381Y-82986477D01*
X77001762Y-82748381D02*
X77716048Y-82510286D01*
X77716048Y-83129334D01*
X104211381Y-81875334D02*
X103735190Y-81542000D01*
X104211381Y-81303905D02*
X103211381Y-81303905D01*
X103211381Y-81684858D01*
X103259000Y-81780096D01*
X103306619Y-81827715D01*
X103401857Y-81875334D01*
X103544714Y-81875334D01*
X103639952Y-81827715D01*
X103687571Y-81780096D01*
X103735190Y-81684858D01*
X103735190Y-81303905D01*
X103211381Y-82780096D02*
X103211381Y-82303905D01*
X103687571Y-82256286D01*
X103639952Y-82303905D01*
X103592333Y-82399143D01*
X103592333Y-82637239D01*
X103639952Y-82732477D01*
X103687571Y-82780096D01*
X103782810Y-82827715D01*
X104020905Y-82827715D01*
X104116143Y-82780096D01*
X104163762Y-82732477D01*
X104211381Y-82637239D01*
X104211381Y-82399143D01*
X104163762Y-82303905D01*
X104116143Y-82256286D01*
X77922381Y-89495334D02*
X77446190Y-89162000D01*
X77922381Y-88923905D02*
X76922381Y-88923905D01*
X76922381Y-89304858D01*
X76970000Y-89400096D01*
X77017619Y-89447715D01*
X77112857Y-89495334D01*
X77255714Y-89495334D01*
X77350952Y-89447715D01*
X77398571Y-89400096D01*
X77446190Y-89304858D01*
X77446190Y-88923905D01*
X76922381Y-90352477D02*
X76922381Y-90162000D01*
X76970000Y-90066762D01*
X77017619Y-90019143D01*
X77160476Y-89923905D01*
X77350952Y-89876286D01*
X77731905Y-89876286D01*
X77827143Y-89923905D01*
X77874762Y-89971524D01*
X77922381Y-90066762D01*
X77922381Y-90257239D01*
X77874762Y-90352477D01*
X77827143Y-90400096D01*
X77731905Y-90447715D01*
X77493810Y-90447715D01*
X77398571Y-90400096D01*
X77350952Y-90352477D01*
X77303333Y-90257239D01*
X77303333Y-90066762D01*
X77350952Y-89971524D01*
X77398571Y-89923905D01*
X77493810Y-89876286D01*
X104211381Y-89622334D02*
X103735190Y-89289000D01*
X104211381Y-89050905D02*
X103211381Y-89050905D01*
X103211381Y-89431858D01*
X103259000Y-89527096D01*
X103306619Y-89574715D01*
X103401857Y-89622334D01*
X103544714Y-89622334D01*
X103639952Y-89574715D01*
X103687571Y-89527096D01*
X103735190Y-89431858D01*
X103735190Y-89050905D01*
X103211381Y-89955667D02*
X103211381Y-90622334D01*
X104211381Y-90193762D01*
X96607095Y-69413381D02*
X96940429Y-68937190D01*
X97178524Y-69413381D02*
X97178524Y-68413381D01*
X96797571Y-68413381D01*
X96702333Y-68461000D01*
X96654714Y-68508619D01*
X96607095Y-68603857D01*
X96607095Y-68746714D01*
X96654714Y-68841952D01*
X96702333Y-68889571D01*
X96797571Y-68937190D01*
X97178524Y-68937190D01*
X95654714Y-69413381D02*
X96226143Y-69413381D01*
X95940429Y-69413381D02*
X95940429Y-68413381D01*
X96035667Y-68556238D01*
X96130905Y-68651476D01*
X96226143Y-68699095D01*
X95035667Y-68413381D02*
X94940428Y-68413381D01*
X94845190Y-68461000D01*
X94797571Y-68508619D01*
X94749952Y-68603857D01*
X94702333Y-68794333D01*
X94702333Y-69032429D01*
X94749952Y-69222905D01*
X94797571Y-69318143D01*
X94845190Y-69365762D01*
X94940428Y-69413381D01*
X95035667Y-69413381D01*
X95130905Y-69365762D01*
X95178524Y-69318143D01*
X95226143Y-69222905D01*
X95273762Y-69032429D01*
X95273762Y-68794333D01*
X95226143Y-68603857D01*
X95178524Y-68508619D01*
X95130905Y-68461000D01*
X95035667Y-68413381D01*
X94273762Y-69032429D02*
X93511857Y-69032429D01*
X92511857Y-69413381D02*
X93083286Y-69413381D01*
X92797572Y-69413381D02*
X92797572Y-68413381D01*
X92892810Y-68556238D01*
X92988048Y-68651476D01*
X93083286Y-68699095D01*
X80113166Y-68587881D02*
X80446500Y-68111690D01*
X80684595Y-68587881D02*
X80684595Y-67587881D01*
X80303642Y-67587881D01*
X80208404Y-67635500D01*
X80160785Y-67683119D01*
X80113166Y-67778357D01*
X80113166Y-67921214D01*
X80160785Y-68016452D01*
X80208404Y-68064071D01*
X80303642Y-68111690D01*
X80684595Y-68111690D01*
X79494119Y-67587881D02*
X79398880Y-67587881D01*
X79303642Y-67635500D01*
X79256023Y-67683119D01*
X79208404Y-67778357D01*
X79160785Y-67968833D01*
X79160785Y-68206929D01*
X79208404Y-68397405D01*
X79256023Y-68492643D01*
X79303642Y-68540262D01*
X79398880Y-68587881D01*
X79494119Y-68587881D01*
X79589357Y-68540262D01*
X79636976Y-68492643D01*
X79684595Y-68397405D01*
X79732214Y-68206929D01*
X79732214Y-67968833D01*
X79684595Y-67778357D01*
X79636976Y-67683119D01*
X79589357Y-67635500D01*
X79494119Y-67587881D01*
X101957166Y-68587881D02*
X102290500Y-68111690D01*
X102528595Y-68587881D02*
X102528595Y-67587881D01*
X102147642Y-67587881D01*
X102052404Y-67635500D01*
X102004785Y-67683119D01*
X101957166Y-67778357D01*
X101957166Y-67921214D01*
X102004785Y-68016452D01*
X102052404Y-68064071D01*
X102147642Y-68111690D01*
X102528595Y-68111690D01*
X101004785Y-68587881D02*
X101576214Y-68587881D01*
X101290500Y-68587881D02*
X101290500Y-67587881D01*
X101385738Y-67730738D01*
X101480976Y-67825976D01*
X101576214Y-67873595D01*
M02*
