G04 #@! TF.FileFunction,Soldermask,Bot*
%FSLAX46Y46*%
G04 Gerber Fmt 4.6, Leading zero omitted, Abs format (unit mm)*
G04 Created by KiCad (PCBNEW 4.0.5) date Mon Feb  6 03:04:20 2017*
%MOMM*%
%LPD*%
G01*
G04 APERTURE LIST*
%ADD10C,0.100000*%
%ADD11R,2.100000X2.100000*%
%ADD12O,2.100000X2.100000*%
%ADD13R,1.900000X1.700000*%
%ADD14R,2.432000X2.127200*%
%ADD15O,2.432000X2.127200*%
%ADD16R,2.432000X2.432000*%
%ADD17O,2.432000X2.432000*%
%ADD18R,1.200100X2.200860*%
%ADD19R,2.127200X2.127200*%
%ADD20O,2.127200X2.127200*%
%ADD21R,1.700000X1.900000*%
G04 APERTURE END LIST*
D10*
D11*
X86233000Y-97980500D03*
D12*
X86233000Y-95440500D03*
X88773000Y-97980500D03*
X88773000Y-95440500D03*
X91313000Y-97980500D03*
X91313000Y-95440500D03*
X93853000Y-97980500D03*
X93853000Y-95440500D03*
X96393000Y-97980500D03*
X96393000Y-95440500D03*
X98933000Y-97980500D03*
X98933000Y-95440500D03*
X101473000Y-97980500D03*
X101473000Y-95440500D03*
X104013000Y-97980500D03*
X104013000Y-95440500D03*
D13*
X88091000Y-68961000D03*
X85391000Y-68961000D03*
D14*
X85026500Y-61531500D03*
D15*
X85026500Y-64071500D03*
X85026500Y-66611500D03*
D14*
X88328500Y-61531500D03*
D15*
X88328500Y-64071500D03*
X88328500Y-66611500D03*
D16*
X88138000Y-83185000D03*
D17*
X88138000Y-80645000D03*
D16*
X93408500Y-83375500D03*
D17*
X93408500Y-80835500D03*
D18*
X101280000Y-83416140D03*
X99380000Y-83416140D03*
X100330000Y-80413860D03*
D19*
X71755000Y-57277000D03*
D20*
X74295000Y-57277000D03*
X71755000Y-59817000D03*
X74295000Y-59817000D03*
X71755000Y-62357000D03*
X74295000Y-62357000D03*
X71755000Y-64897000D03*
X74295000Y-64897000D03*
X71755000Y-67437000D03*
X74295000Y-67437000D03*
X71755000Y-69977000D03*
X74295000Y-69977000D03*
X71755000Y-72517000D03*
X74295000Y-72517000D03*
X71755000Y-75057000D03*
X74295000Y-75057000D03*
X71755000Y-77597000D03*
X74295000Y-77597000D03*
X71755000Y-80137000D03*
X74295000Y-80137000D03*
X71755000Y-82677000D03*
X74295000Y-82677000D03*
X71755000Y-85217000D03*
X74295000Y-85217000D03*
X71755000Y-87757000D03*
X74295000Y-87757000D03*
X71755000Y-90297000D03*
X74295000Y-90297000D03*
X71755000Y-92837000D03*
X74295000Y-92837000D03*
X71755000Y-95377000D03*
X74295000Y-95377000D03*
X71755000Y-97917000D03*
X74295000Y-97917000D03*
X71755000Y-100457000D03*
X74295000Y-100457000D03*
X71755000Y-102997000D03*
X74295000Y-102997000D03*
X71755000Y-105537000D03*
X74295000Y-105537000D03*
D19*
X107315000Y-57277000D03*
D20*
X109855000Y-57277000D03*
X107315000Y-59817000D03*
X109855000Y-59817000D03*
X107315000Y-62357000D03*
X109855000Y-62357000D03*
X107315000Y-64897000D03*
X109855000Y-64897000D03*
X107315000Y-67437000D03*
X109855000Y-67437000D03*
X107315000Y-69977000D03*
X109855000Y-69977000D03*
X107315000Y-72517000D03*
X109855000Y-72517000D03*
X107315000Y-75057000D03*
X109855000Y-75057000D03*
X107315000Y-77597000D03*
X109855000Y-77597000D03*
X107315000Y-80137000D03*
X109855000Y-80137000D03*
X107315000Y-82677000D03*
X109855000Y-82677000D03*
X107315000Y-85217000D03*
X109855000Y-85217000D03*
X107315000Y-87757000D03*
X109855000Y-87757000D03*
X107315000Y-90297000D03*
X109855000Y-90297000D03*
X107315000Y-92837000D03*
X109855000Y-92837000D03*
X107315000Y-95377000D03*
X109855000Y-95377000D03*
X107315000Y-97917000D03*
X109855000Y-97917000D03*
X107315000Y-100457000D03*
X109855000Y-100457000D03*
X107315000Y-102997000D03*
X109855000Y-102997000D03*
X107315000Y-105537000D03*
X109855000Y-105537000D03*
D18*
X80896500Y-64048640D03*
X78996500Y-64048640D03*
X79946500Y-61046360D03*
X101343500Y-76494640D03*
X99443500Y-76494640D03*
X100393500Y-73492360D03*
X81785500Y-76240640D03*
X79885500Y-76240640D03*
X80835500Y-73238360D03*
D14*
X93408500Y-61531500D03*
D15*
X93408500Y-64071500D03*
X93408500Y-66611500D03*
D14*
X96710500Y-61531500D03*
D15*
X96710500Y-64071500D03*
X96710500Y-66611500D03*
D16*
X96837500Y-76009500D03*
D17*
X96837500Y-73469500D03*
D16*
X93535500Y-76009500D03*
D17*
X93535500Y-73469500D03*
D16*
X84645500Y-76009500D03*
D17*
X84645500Y-73469500D03*
D16*
X87947500Y-76009500D03*
D17*
X87947500Y-73469500D03*
D16*
X84836000Y-83185000D03*
D17*
X84836000Y-80645000D03*
D16*
X96710500Y-83375500D03*
D17*
X96710500Y-80835500D03*
D16*
X84899500Y-90995500D03*
D17*
X84899500Y-88455500D03*
D16*
X88201500Y-90995500D03*
D17*
X88201500Y-88455500D03*
D16*
X96456500Y-90995500D03*
D17*
X96456500Y-88455500D03*
D16*
X93154500Y-90995500D03*
D17*
X93154500Y-88455500D03*
D18*
X100840500Y-61554360D03*
X102740500Y-61554360D03*
X101790500Y-64556640D03*
X81595000Y-83543140D03*
X79695000Y-83543140D03*
X80645000Y-80540860D03*
X82103000Y-91163140D03*
X80203000Y-91163140D03*
X81153000Y-88160860D03*
X101153000Y-91036140D03*
X99253000Y-91036140D03*
X100203000Y-88033860D03*
D21*
X103695500Y-76343500D03*
X103695500Y-73643500D03*
X77533500Y-76089500D03*
X77533500Y-73389500D03*
X77597000Y-80946000D03*
X77597000Y-83646000D03*
X103759000Y-80692000D03*
X103759000Y-83392000D03*
X77470000Y-88312000D03*
X77470000Y-91012000D03*
X103759000Y-88185000D03*
X103759000Y-90885000D03*
D13*
X96219000Y-68961000D03*
X93519000Y-68961000D03*
X78596500Y-68135500D03*
X81296500Y-68135500D03*
X103140500Y-68135500D03*
X100440500Y-68135500D03*
D16*
X77597000Y-97917000D03*
D17*
X77597000Y-95377000D03*
D11*
X86233000Y-103314500D03*
D12*
X86233000Y-100774500D03*
X88773000Y-103314500D03*
X88773000Y-100774500D03*
X91313000Y-103314500D03*
X91313000Y-100774500D03*
X93853000Y-103314500D03*
X93853000Y-100774500D03*
X96393000Y-103314500D03*
X96393000Y-100774500D03*
X98933000Y-103314500D03*
X98933000Y-100774500D03*
X101473000Y-103314500D03*
X101473000Y-100774500D03*
X104013000Y-103314500D03*
X104013000Y-100774500D03*
M02*
