G04 #@! TF.FileFunction,Legend,Top*
%FSLAX46Y46*%
G04 Gerber Fmt 4.6, Leading zero omitted, Abs format (unit mm)*
G04 Created by KiCad (PCBNEW 4.0.5) date Mon Feb  6 23:02:00 2017*
%MOMM*%
%LPD*%
G01*
G04 APERTURE LIST*
%ADD10C,0.100000*%
%ADD11C,0.300000*%
%ADD12C,0.200000*%
%ADD13C,0.400000*%
%ADD14C,0.010000*%
%ADD15C,0.120000*%
%ADD16C,0.150000*%
G04 APERTURE END LIST*
D10*
D11*
X97380357Y-70732572D02*
X96180357Y-70732572D01*
X97380357Y-70161143D02*
X96180357Y-70161143D01*
X97380357Y-69475428D01*
X96180357Y-69475428D01*
X92941857Y-71240500D02*
X92941857Y-71011929D01*
X92999000Y-70897643D01*
X93113286Y-70783357D01*
X93341857Y-70726215D01*
X93741857Y-70726215D01*
X93970429Y-70783357D01*
X94084714Y-70897643D01*
X94141857Y-71011929D01*
X94141857Y-71240500D01*
X94084714Y-71354786D01*
X93970429Y-71469072D01*
X93741857Y-71526215D01*
X93341857Y-71526215D01*
X93113286Y-71469072D01*
X92999000Y-71354786D01*
X92941857Y-71240500D01*
X92941857Y-70211929D02*
X93913286Y-70211929D01*
X94027571Y-70154786D01*
X94084714Y-70097643D01*
X94141857Y-69983357D01*
X94141857Y-69754786D01*
X94084714Y-69640500D01*
X94027571Y-69583357D01*
X93913286Y-69526214D01*
X92941857Y-69526214D01*
X92941857Y-69126214D02*
X92941857Y-68440500D01*
X94141857Y-68783357D02*
X92941857Y-68783357D01*
X87544357Y-71240500D02*
X87544357Y-71011929D01*
X87601500Y-70897643D01*
X87715786Y-70783357D01*
X87944357Y-70726215D01*
X88344357Y-70726215D01*
X88572929Y-70783357D01*
X88687214Y-70897643D01*
X88744357Y-71011929D01*
X88744357Y-71240500D01*
X88687214Y-71354786D01*
X88572929Y-71469072D01*
X88344357Y-71526215D01*
X87944357Y-71526215D01*
X87715786Y-71469072D01*
X87601500Y-71354786D01*
X87544357Y-71240500D01*
X87544357Y-70211929D02*
X88515786Y-70211929D01*
X88630071Y-70154786D01*
X88687214Y-70097643D01*
X88744357Y-69983357D01*
X88744357Y-69754786D01*
X88687214Y-69640500D01*
X88630071Y-69583357D01*
X88515786Y-69526214D01*
X87544357Y-69526214D01*
X87544357Y-69126214D02*
X87544357Y-68440500D01*
X88744357Y-68783357D02*
X87544357Y-68783357D01*
X85569357Y-70732572D02*
X84369357Y-70732572D01*
X85569357Y-70161143D02*
X84369357Y-70161143D01*
X85569357Y-69475428D01*
X84369357Y-69475428D01*
D12*
X111061500Y-52197000D02*
X111061500Y-51625500D01*
X104330500Y-54356000D02*
X104394000Y-54356000D01*
X104330500Y-51562000D02*
X104330500Y-54356000D01*
X104330500Y-54356000D02*
X111125000Y-54356000D01*
D11*
X105803143Y-52201071D02*
X105803143Y-53415357D01*
X105874571Y-53558214D01*
X105946000Y-53629643D01*
X106088857Y-53701071D01*
X106374571Y-53701071D01*
X106517429Y-53629643D01*
X106588857Y-53558214D01*
X106660286Y-53415357D01*
X106660286Y-52201071D01*
X107303143Y-53629643D02*
X107517429Y-53701071D01*
X107874572Y-53701071D01*
X108017429Y-53629643D01*
X108088858Y-53558214D01*
X108160286Y-53415357D01*
X108160286Y-53272500D01*
X108088858Y-53129643D01*
X108017429Y-53058214D01*
X107874572Y-52986786D01*
X107588858Y-52915357D01*
X107446000Y-52843929D01*
X107374572Y-52772500D01*
X107303143Y-52629643D01*
X107303143Y-52486786D01*
X107374572Y-52343929D01*
X107446000Y-52272500D01*
X107588858Y-52201071D01*
X107946000Y-52201071D01*
X108160286Y-52272500D01*
X109303143Y-52915357D02*
X109517429Y-52986786D01*
X109588857Y-53058214D01*
X109660286Y-53201071D01*
X109660286Y-53415357D01*
X109588857Y-53558214D01*
X109517429Y-53629643D01*
X109374571Y-53701071D01*
X108803143Y-53701071D01*
X108803143Y-52201071D01*
X109303143Y-52201071D01*
X109446000Y-52272500D01*
X109517429Y-52343929D01*
X109588857Y-52486786D01*
X109588857Y-52629643D01*
X109517429Y-52772500D01*
X109446000Y-52843929D01*
X109303143Y-52915357D01*
X108803143Y-52915357D01*
D12*
X111061500Y-54356000D02*
X111061500Y-52197000D01*
X104330500Y-52197000D02*
X104330500Y-54356000D01*
X100838000Y-106743500D02*
X100838000Y-104775000D01*
X105854500Y-100838000D02*
X105473500Y-100838000D01*
D11*
X101885929Y-106469571D02*
X101171643Y-106469571D01*
X101171643Y-104969571D01*
X102385929Y-106469571D02*
X102385929Y-104969571D01*
X103100215Y-106469571D02*
X103100215Y-104969571D01*
X103671643Y-104969571D01*
X103814501Y-105041000D01*
X103885929Y-105112429D01*
X103957358Y-105255286D01*
X103957358Y-105469571D01*
X103885929Y-105612429D01*
X103814501Y-105683857D01*
X103671643Y-105755286D01*
X103100215Y-105755286D01*
X104885929Y-104969571D02*
X105171643Y-104969571D01*
X105314501Y-105041000D01*
X105457358Y-105183857D01*
X105528786Y-105469571D01*
X105528786Y-105969571D01*
X105457358Y-106255286D01*
X105314501Y-106398143D01*
X105171643Y-106469571D01*
X104885929Y-106469571D01*
X104743072Y-106398143D01*
X104600215Y-106255286D01*
X104528786Y-105969571D01*
X104528786Y-105469571D01*
X104600215Y-105183857D01*
X104743072Y-105041000D01*
X104885929Y-104969571D01*
D12*
X105854500Y-106680000D02*
X105854500Y-100838000D01*
X90741500Y-56134000D02*
X90741500Y-93916500D01*
X105968800Y-93319600D02*
X106019600Y-93370400D01*
X75590400Y-93891100D02*
X105968800Y-93891100D01*
D11*
X82772287Y-94677571D02*
X82058001Y-94677571D01*
X81986572Y-95391857D01*
X82058001Y-95320429D01*
X82200858Y-95249000D01*
X82558001Y-95249000D01*
X82700858Y-95320429D01*
X82772287Y-95391857D01*
X82843715Y-95534714D01*
X82843715Y-95891857D01*
X82772287Y-96034714D01*
X82700858Y-96106143D01*
X82558001Y-96177571D01*
X82200858Y-96177571D01*
X82058001Y-96106143D01*
X81986572Y-96034714D01*
X83272286Y-94677571D02*
X83772286Y-96177571D01*
X84272286Y-94677571D01*
X82272286Y-98727571D02*
X82272286Y-97227571D01*
X82986572Y-98727571D02*
X82986572Y-97227571D01*
X83843715Y-98727571D01*
X83843715Y-97227571D01*
X101921572Y-89192571D02*
X101421572Y-88478286D01*
X101064429Y-89192571D02*
X101064429Y-87692571D01*
X101635857Y-87692571D01*
X101778715Y-87764000D01*
X101850143Y-87835429D01*
X101921572Y-87978286D01*
X101921572Y-88192571D01*
X101850143Y-88335429D01*
X101778715Y-88406857D01*
X101635857Y-88478286D01*
X101064429Y-88478286D01*
X102493000Y-89121143D02*
X102707286Y-89192571D01*
X103064429Y-89192571D01*
X103207286Y-89121143D01*
X103278715Y-89049714D01*
X103350143Y-88906857D01*
X103350143Y-88764000D01*
X103278715Y-88621143D01*
X103207286Y-88549714D01*
X103064429Y-88478286D01*
X102778715Y-88406857D01*
X102635857Y-88335429D01*
X102564429Y-88264000D01*
X102493000Y-88121143D01*
X102493000Y-87978286D01*
X102564429Y-87835429D01*
X102635857Y-87764000D01*
X102778715Y-87692571D01*
X103135857Y-87692571D01*
X103350143Y-87764000D01*
X103778714Y-87692571D02*
X104635857Y-87692571D01*
X104207286Y-89192571D02*
X104207286Y-87692571D01*
X101457286Y-91671143D02*
X101671572Y-91742571D01*
X102028715Y-91742571D01*
X102171572Y-91671143D01*
X102243001Y-91599714D01*
X102314429Y-91456857D01*
X102314429Y-91314000D01*
X102243001Y-91171143D01*
X102171572Y-91099714D01*
X102028715Y-91028286D01*
X101743001Y-90956857D01*
X101600143Y-90885429D01*
X101528715Y-90814000D01*
X101457286Y-90671143D01*
X101457286Y-90528286D01*
X101528715Y-90385429D01*
X101600143Y-90314000D01*
X101743001Y-90242571D01*
X102100143Y-90242571D01*
X102314429Y-90314000D01*
X102814429Y-90242571D02*
X103171572Y-91742571D01*
X103457286Y-90671143D01*
X103743000Y-91742571D01*
X104100143Y-90242571D01*
X99631428Y-90951857D02*
X98488571Y-90951857D01*
X99631428Y-88475357D02*
X98488571Y-88475357D01*
X99060000Y-87903929D02*
X99060000Y-89046786D01*
X100806500Y-63602071D02*
X100806500Y-62102071D01*
X101377928Y-62102071D01*
X101520786Y-62173500D01*
X101592214Y-62244929D01*
X101663643Y-62387786D01*
X101663643Y-62602071D01*
X101592214Y-62744929D01*
X101520786Y-62816357D01*
X101377928Y-62887786D01*
X100806500Y-62887786D01*
X102163643Y-62102071D02*
X102520786Y-63602071D01*
X102806500Y-62530643D01*
X103092214Y-63602071D01*
X103449357Y-62102071D01*
X104877929Y-63602071D02*
X104377929Y-62887786D01*
X104020786Y-63602071D02*
X104020786Y-62102071D01*
X104592214Y-62102071D01*
X104735072Y-62173500D01*
X104806500Y-62244929D01*
X104877929Y-62387786D01*
X104877929Y-62602071D01*
X104806500Y-62744929D01*
X104735072Y-62816357D01*
X104592214Y-62887786D01*
X104020786Y-62887786D01*
X101842215Y-66152071D02*
X101127929Y-66152071D01*
X101127929Y-64652071D01*
X102342215Y-65366357D02*
X102842215Y-65366357D01*
X103056501Y-66152071D02*
X102342215Y-66152071D01*
X102342215Y-64652071D01*
X103056501Y-64652071D01*
X103699358Y-66152071D02*
X103699358Y-64652071D01*
X104056501Y-64652071D01*
X104270786Y-64723500D01*
X104413644Y-64866357D01*
X104485072Y-65009214D01*
X104556501Y-65294929D01*
X104556501Y-65509214D01*
X104485072Y-65794929D01*
X104413644Y-65937786D01*
X104270786Y-66080643D01*
X104056501Y-66152071D01*
X103699358Y-66152071D01*
X80962428Y-95396857D02*
X79819571Y-95396857D01*
X80391000Y-94825429D02*
X80391000Y-95968286D01*
X80962428Y-97936857D02*
X79819571Y-97936857D01*
X82359428Y-76092857D02*
X81216571Y-76092857D01*
X82359428Y-73425857D02*
X81216571Y-73425857D01*
X81788000Y-72854429D02*
X81788000Y-73997286D01*
X76589143Y-73778000D02*
X77303429Y-73778000D01*
X76446286Y-74206571D02*
X76946286Y-72706571D01*
X77446286Y-74206571D01*
X77732000Y-72706571D02*
X78589143Y-72706571D01*
X78160572Y-74206571D02*
X78160572Y-72706571D01*
X78946286Y-72706571D02*
X79946286Y-74206571D01*
X79946286Y-72706571D02*
X78946286Y-74206571D01*
X76946286Y-76685143D02*
X77160572Y-76756571D01*
X77517715Y-76756571D01*
X77660572Y-76685143D01*
X77732001Y-76613714D01*
X77803429Y-76470857D01*
X77803429Y-76328000D01*
X77732001Y-76185143D01*
X77660572Y-76113714D01*
X77517715Y-76042286D01*
X77232001Y-75970857D01*
X77089143Y-75899429D01*
X77017715Y-75828000D01*
X76946286Y-75685143D01*
X76946286Y-75542286D01*
X77017715Y-75399429D01*
X77089143Y-75328000D01*
X77232001Y-75256571D01*
X77589143Y-75256571D01*
X77803429Y-75328000D01*
X78303429Y-75256571D02*
X78660572Y-76756571D01*
X78946286Y-75685143D01*
X79232000Y-76756571D01*
X79589143Y-75256571D01*
X82740428Y-83204857D02*
X81597571Y-83204857D01*
X82740428Y-80664857D02*
X81597571Y-80664857D01*
X82169000Y-80093429D02*
X82169000Y-81236286D01*
X76486000Y-81318571D02*
X76486000Y-79818571D01*
X77057428Y-79818571D01*
X77200286Y-79890000D01*
X77271714Y-79961429D01*
X77343143Y-80104286D01*
X77343143Y-80318571D01*
X77271714Y-80461429D01*
X77200286Y-80532857D01*
X77057428Y-80604286D01*
X76486000Y-80604286D01*
X77843143Y-79818571D02*
X78200286Y-81318571D01*
X78486000Y-80247143D01*
X78771714Y-81318571D01*
X79128857Y-79818571D01*
X80557429Y-81318571D02*
X80057429Y-80604286D01*
X79700286Y-81318571D02*
X79700286Y-79818571D01*
X80271714Y-79818571D01*
X80414572Y-79890000D01*
X80486000Y-79961429D01*
X80557429Y-80104286D01*
X80557429Y-80318571D01*
X80486000Y-80461429D01*
X80414572Y-80532857D01*
X80271714Y-80604286D01*
X79700286Y-80604286D01*
X77200286Y-83797143D02*
X77414572Y-83868571D01*
X77771715Y-83868571D01*
X77914572Y-83797143D01*
X77986001Y-83725714D01*
X78057429Y-83582857D01*
X78057429Y-83440000D01*
X77986001Y-83297143D01*
X77914572Y-83225714D01*
X77771715Y-83154286D01*
X77486001Y-83082857D01*
X77343143Y-83011429D01*
X77271715Y-82940000D01*
X77200286Y-82797143D01*
X77200286Y-82654286D01*
X77271715Y-82511429D01*
X77343143Y-82440000D01*
X77486001Y-82368571D01*
X77843143Y-82368571D01*
X78057429Y-82440000D01*
X78557429Y-82368571D02*
X78914572Y-83868571D01*
X79200286Y-82797143D01*
X79486000Y-83868571D01*
X79843143Y-82368571D01*
X82803928Y-88475357D02*
X81661071Y-88475357D01*
X82232500Y-87903929D02*
X82232500Y-89046786D01*
X82803928Y-91015357D02*
X81661071Y-91015357D01*
X100012428Y-80791857D02*
X98869571Y-80791857D01*
X99441000Y-80220429D02*
X99441000Y-81363286D01*
X100139428Y-83458857D02*
X98996571Y-83458857D01*
X77855072Y-89256071D02*
X77355072Y-88541786D01*
X76997929Y-89256071D02*
X76997929Y-87756071D01*
X77569357Y-87756071D01*
X77712215Y-87827500D01*
X77783643Y-87898929D01*
X77855072Y-88041786D01*
X77855072Y-88256071D01*
X77783643Y-88398929D01*
X77712215Y-88470357D01*
X77569357Y-88541786D01*
X76997929Y-88541786D01*
X78426500Y-89184643D02*
X78640786Y-89256071D01*
X78997929Y-89256071D01*
X79140786Y-89184643D01*
X79212215Y-89113214D01*
X79283643Y-88970357D01*
X79283643Y-88827500D01*
X79212215Y-88684643D01*
X79140786Y-88613214D01*
X78997929Y-88541786D01*
X78712215Y-88470357D01*
X78569357Y-88398929D01*
X78497929Y-88327500D01*
X78426500Y-88184643D01*
X78426500Y-88041786D01*
X78497929Y-87898929D01*
X78569357Y-87827500D01*
X78712215Y-87756071D01*
X79069357Y-87756071D01*
X79283643Y-87827500D01*
X79712214Y-87756071D02*
X80569357Y-87756071D01*
X80140786Y-89256071D02*
X80140786Y-87756071D01*
X77390786Y-91734643D02*
X77605072Y-91806071D01*
X77962215Y-91806071D01*
X78105072Y-91734643D01*
X78176501Y-91663214D01*
X78247929Y-91520357D01*
X78247929Y-91377500D01*
X78176501Y-91234643D01*
X78105072Y-91163214D01*
X77962215Y-91091786D01*
X77676501Y-91020357D01*
X77533643Y-90948929D01*
X77462215Y-90877500D01*
X77390786Y-90734643D01*
X77390786Y-90591786D01*
X77462215Y-90448929D01*
X77533643Y-90377500D01*
X77676501Y-90306071D01*
X78033643Y-90306071D01*
X78247929Y-90377500D01*
X78747929Y-90306071D02*
X79105072Y-91806071D01*
X79390786Y-90734643D01*
X79676500Y-91806071D01*
X80033643Y-90306071D01*
X100743000Y-81699571D02*
X100743000Y-80199571D01*
X101314428Y-80199571D01*
X101457286Y-80271000D01*
X101528714Y-80342429D01*
X101600143Y-80485286D01*
X101600143Y-80699571D01*
X101528714Y-80842429D01*
X101457286Y-80913857D01*
X101314428Y-80985286D01*
X100743000Y-80985286D01*
X102100143Y-80199571D02*
X102457286Y-81699571D01*
X102743000Y-80628143D01*
X103028714Y-81699571D01*
X103385857Y-80199571D01*
X104814429Y-81699571D02*
X104314429Y-80985286D01*
X103957286Y-81699571D02*
X103957286Y-80199571D01*
X104528714Y-80199571D01*
X104671572Y-80271000D01*
X104743000Y-80342429D01*
X104814429Y-80485286D01*
X104814429Y-80699571D01*
X104743000Y-80842429D01*
X104671572Y-80913857D01*
X104528714Y-80985286D01*
X103957286Y-80985286D01*
X101457286Y-84178143D02*
X101671572Y-84249571D01*
X102028715Y-84249571D01*
X102171572Y-84178143D01*
X102243001Y-84106714D01*
X102314429Y-83963857D01*
X102314429Y-83821000D01*
X102243001Y-83678143D01*
X102171572Y-83606714D01*
X102028715Y-83535286D01*
X101743001Y-83463857D01*
X101600143Y-83392429D01*
X101528715Y-83321000D01*
X101457286Y-83178143D01*
X101457286Y-83035286D01*
X101528715Y-82892429D01*
X101600143Y-82821000D01*
X101743001Y-82749571D01*
X102100143Y-82749571D01*
X102314429Y-82821000D01*
X102814429Y-82749571D02*
X103171572Y-84249571D01*
X103457286Y-83178143D01*
X103743000Y-84249571D01*
X104100143Y-82749571D01*
X101290643Y-73714500D02*
X102004929Y-73714500D01*
X101147786Y-74143071D02*
X101647786Y-72643071D01*
X102147786Y-74143071D01*
X102433500Y-72643071D02*
X103290643Y-72643071D01*
X102862072Y-74143071D02*
X102862072Y-72643071D01*
X103647786Y-72643071D02*
X104647786Y-74143071D01*
X104647786Y-72643071D02*
X103647786Y-74143071D01*
X101647786Y-76621643D02*
X101862072Y-76693071D01*
X102219215Y-76693071D01*
X102362072Y-76621643D01*
X102433501Y-76550214D01*
X102504929Y-76407357D01*
X102504929Y-76264500D01*
X102433501Y-76121643D01*
X102362072Y-76050214D01*
X102219215Y-75978786D01*
X101933501Y-75907357D01*
X101790643Y-75835929D01*
X101719215Y-75764500D01*
X101647786Y-75621643D01*
X101647786Y-75478786D01*
X101719215Y-75335929D01*
X101790643Y-75264500D01*
X101933501Y-75193071D01*
X102290643Y-75193071D01*
X102504929Y-75264500D01*
X103004929Y-75193071D02*
X103362072Y-76693071D01*
X103647786Y-75621643D01*
X103933500Y-76693071D01*
X104290643Y-75193071D01*
X100075928Y-73235357D02*
X98933071Y-73235357D01*
X99504500Y-72663929D02*
X99504500Y-73806786D01*
X100075928Y-75775357D02*
X98933071Y-75775357D01*
D13*
X82995476Y-52879762D02*
X83471667Y-54879762D01*
X83852619Y-53451190D01*
X84233572Y-54879762D01*
X84709762Y-52879762D01*
X85185952Y-53546429D02*
X85947857Y-53546429D01*
X85471666Y-52879762D02*
X85471666Y-54594048D01*
X85566905Y-54784524D01*
X85757381Y-54879762D01*
X85947857Y-54879762D01*
X89281191Y-54879762D02*
X88614524Y-53927381D01*
X88138333Y-54879762D02*
X88138333Y-52879762D01*
X88900238Y-52879762D01*
X89090714Y-52975000D01*
X89185953Y-53070238D01*
X89281191Y-53260714D01*
X89281191Y-53546429D01*
X89185953Y-53736905D01*
X89090714Y-53832143D01*
X88900238Y-53927381D01*
X88138333Y-53927381D01*
X90138333Y-54879762D02*
X90138333Y-52879762D01*
X90900238Y-52879762D01*
X91090714Y-52975000D01*
X91185953Y-53070238D01*
X91281191Y-53260714D01*
X91281191Y-53546429D01*
X91185953Y-53736905D01*
X91090714Y-53832143D01*
X90900238Y-53927381D01*
X90138333Y-53927381D01*
X92138333Y-54879762D02*
X92138333Y-52879762D01*
X92805000Y-54308333D01*
X93471667Y-52879762D01*
X93471667Y-54879762D01*
X95757381Y-53546429D02*
X96233572Y-54879762D01*
X96709762Y-53546429D01*
X97376429Y-53070238D02*
X97471667Y-52975000D01*
X97662144Y-52879762D01*
X98138334Y-52879762D01*
X98328810Y-52975000D01*
X98424048Y-53070238D01*
X98519287Y-53260714D01*
X98519287Y-53451190D01*
X98424048Y-53736905D01*
X97281191Y-54879762D01*
X98519287Y-54879762D01*
D11*
X82803928Y-66504357D02*
X81661071Y-66504357D01*
X100075928Y-66504357D02*
X98933071Y-66504357D01*
X82803928Y-61424357D02*
X81661071Y-61424357D01*
X82232500Y-60852929D02*
X82232500Y-61995786D01*
X100075928Y-61424357D02*
X98933071Y-61424357D01*
X99504500Y-60852929D02*
X99504500Y-61995786D01*
X76295500Y-63729071D02*
X76295500Y-62229071D01*
X76866928Y-62229071D01*
X77009786Y-62300500D01*
X77081214Y-62371929D01*
X77152643Y-62514786D01*
X77152643Y-62729071D01*
X77081214Y-62871929D01*
X77009786Y-62943357D01*
X76866928Y-63014786D01*
X76295500Y-63014786D01*
X77652643Y-62229071D02*
X78009786Y-63729071D01*
X78295500Y-62657643D01*
X78581214Y-63729071D01*
X78938357Y-62229071D01*
X80366929Y-63729071D02*
X79866929Y-63014786D01*
X79509786Y-63729071D02*
X79509786Y-62229071D01*
X80081214Y-62229071D01*
X80224072Y-62300500D01*
X80295500Y-62371929D01*
X80366929Y-62514786D01*
X80366929Y-62729071D01*
X80295500Y-62871929D01*
X80224072Y-62943357D01*
X80081214Y-63014786D01*
X79509786Y-63014786D01*
X77331215Y-66279071D02*
X76616929Y-66279071D01*
X76616929Y-64779071D01*
X77831215Y-65493357D02*
X78331215Y-65493357D01*
X78545501Y-66279071D02*
X77831215Y-66279071D01*
X77831215Y-64779071D01*
X78545501Y-64779071D01*
X79188358Y-66279071D02*
X79188358Y-64779071D01*
X79545501Y-64779071D01*
X79759786Y-64850500D01*
X79902644Y-64993357D01*
X79974072Y-65136214D01*
X80045501Y-65421929D01*
X80045501Y-65636214D01*
X79974072Y-65921929D01*
X79902644Y-66064786D01*
X79759786Y-66207643D01*
X79545501Y-66279071D01*
X79188358Y-66279071D01*
X93341715Y-58209571D02*
X93341715Y-56709571D01*
X93841715Y-57781000D01*
X94341715Y-56709571D01*
X94341715Y-58209571D01*
X95698858Y-58209571D02*
X95698858Y-57423857D01*
X95627429Y-57281000D01*
X95484572Y-57209571D01*
X95198858Y-57209571D01*
X95056001Y-57281000D01*
X95698858Y-58138143D02*
X95556001Y-58209571D01*
X95198858Y-58209571D01*
X95056001Y-58138143D01*
X94984572Y-57995286D01*
X94984572Y-57852429D01*
X95056001Y-57709571D01*
X95198858Y-57638143D01*
X95556001Y-57638143D01*
X95698858Y-57566714D01*
X97056001Y-58138143D02*
X96913144Y-58209571D01*
X96627430Y-58209571D01*
X96484572Y-58138143D01*
X96413144Y-58066714D01*
X96341715Y-57923857D01*
X96341715Y-57495286D01*
X96413144Y-57352429D01*
X96484572Y-57281000D01*
X96627430Y-57209571D01*
X96913144Y-57209571D01*
X97056001Y-57281000D01*
X97698858Y-58209571D02*
X97698858Y-56709571D01*
X98341715Y-58209571D02*
X98341715Y-57423857D01*
X98270286Y-57281000D01*
X98127429Y-57209571D01*
X97913144Y-57209571D01*
X97770286Y-57281000D01*
X97698858Y-57352429D01*
X99056001Y-58209571D02*
X99056001Y-57209571D01*
X99056001Y-56709571D02*
X98984572Y-56781000D01*
X99056001Y-56852429D01*
X99127429Y-56781000D01*
X99056001Y-56709571D01*
X99056001Y-56852429D01*
X99770287Y-57209571D02*
X99770287Y-58209571D01*
X99770287Y-57352429D02*
X99841715Y-57281000D01*
X99984573Y-57209571D01*
X100198858Y-57209571D01*
X100341715Y-57281000D01*
X100413144Y-57423857D01*
X100413144Y-58209571D01*
X101698858Y-58138143D02*
X101556001Y-58209571D01*
X101270287Y-58209571D01*
X101127430Y-58138143D01*
X101056001Y-57995286D01*
X101056001Y-57423857D01*
X101127430Y-57281000D01*
X101270287Y-57209571D01*
X101556001Y-57209571D01*
X101698858Y-57281000D01*
X101770287Y-57423857D01*
X101770287Y-57566714D01*
X101056001Y-57709571D01*
X103484572Y-56852429D02*
X103556001Y-56781000D01*
X103698858Y-56709571D01*
X104056001Y-56709571D01*
X104198858Y-56781000D01*
X104270287Y-56852429D01*
X104341715Y-56995286D01*
X104341715Y-57138143D01*
X104270287Y-57352429D01*
X103413144Y-58209571D01*
X104341715Y-58209571D01*
X77720715Y-58209571D02*
X77720715Y-56709571D01*
X78220715Y-57781000D01*
X78720715Y-56709571D01*
X78720715Y-58209571D01*
X80077858Y-58209571D02*
X80077858Y-57423857D01*
X80006429Y-57281000D01*
X79863572Y-57209571D01*
X79577858Y-57209571D01*
X79435001Y-57281000D01*
X80077858Y-58138143D02*
X79935001Y-58209571D01*
X79577858Y-58209571D01*
X79435001Y-58138143D01*
X79363572Y-57995286D01*
X79363572Y-57852429D01*
X79435001Y-57709571D01*
X79577858Y-57638143D01*
X79935001Y-57638143D01*
X80077858Y-57566714D01*
X81435001Y-58138143D02*
X81292144Y-58209571D01*
X81006430Y-58209571D01*
X80863572Y-58138143D01*
X80792144Y-58066714D01*
X80720715Y-57923857D01*
X80720715Y-57495286D01*
X80792144Y-57352429D01*
X80863572Y-57281000D01*
X81006430Y-57209571D01*
X81292144Y-57209571D01*
X81435001Y-57281000D01*
X82077858Y-58209571D02*
X82077858Y-56709571D01*
X82720715Y-58209571D02*
X82720715Y-57423857D01*
X82649286Y-57281000D01*
X82506429Y-57209571D01*
X82292144Y-57209571D01*
X82149286Y-57281000D01*
X82077858Y-57352429D01*
X83435001Y-58209571D02*
X83435001Y-57209571D01*
X83435001Y-56709571D02*
X83363572Y-56781000D01*
X83435001Y-56852429D01*
X83506429Y-56781000D01*
X83435001Y-56709571D01*
X83435001Y-56852429D01*
X84149287Y-57209571D02*
X84149287Y-58209571D01*
X84149287Y-57352429D02*
X84220715Y-57281000D01*
X84363573Y-57209571D01*
X84577858Y-57209571D01*
X84720715Y-57281000D01*
X84792144Y-57423857D01*
X84792144Y-58209571D01*
X86077858Y-58138143D02*
X85935001Y-58209571D01*
X85649287Y-58209571D01*
X85506430Y-58138143D01*
X85435001Y-57995286D01*
X85435001Y-57423857D01*
X85506430Y-57281000D01*
X85649287Y-57209571D01*
X85935001Y-57209571D01*
X86077858Y-57281000D01*
X86149287Y-57423857D01*
X86149287Y-57566714D01*
X85435001Y-57709571D01*
X88720715Y-58209571D02*
X87863572Y-58209571D01*
X88292144Y-58209571D02*
X88292144Y-56709571D01*
X88149287Y-56923857D01*
X88006429Y-57066714D01*
X87863572Y-57138143D01*
D14*
G36*
X78101241Y-104440784D02*
X78127753Y-104453882D01*
X78160447Y-104476706D01*
X78184275Y-104501596D01*
X78200594Y-104532849D01*
X78210760Y-104574766D01*
X78216128Y-104631644D01*
X78218056Y-104707784D01*
X78218169Y-104740517D01*
X78217839Y-104812256D01*
X78216473Y-104863527D01*
X78213500Y-104899004D01*
X78208351Y-104923363D01*
X78200457Y-104941280D01*
X78192243Y-104953502D01*
X78139813Y-105005505D01*
X78078070Y-105036784D01*
X78011464Y-105046192D01*
X77944442Y-105032580D01*
X77923208Y-105022954D01*
X77872376Y-104996459D01*
X77872376Y-105411652D01*
X77909475Y-105392468D01*
X77958357Y-105377625D01*
X78018439Y-105373822D01*
X78078436Y-105380843D01*
X78123744Y-105396613D01*
X78161325Y-105426647D01*
X78193436Y-105469624D01*
X78195850Y-105474036D01*
X78206033Y-105494821D01*
X78213470Y-105515770D01*
X78218589Y-105541148D01*
X78221819Y-105575218D01*
X78223587Y-105622241D01*
X78224323Y-105686482D01*
X78224456Y-105758776D01*
X78224456Y-105989422D01*
X78086139Y-105989422D01*
X78086139Y-105564133D01*
X78047451Y-105531579D01*
X78007262Y-105505540D01*
X77969203Y-105500805D01*
X77930934Y-105512989D01*
X77910538Y-105524920D01*
X77895358Y-105541913D01*
X77884562Y-105567595D01*
X77877317Y-105605591D01*
X77872792Y-105659526D01*
X77870156Y-105733025D01*
X77869228Y-105781947D01*
X77866089Y-105983135D01*
X77800074Y-105986936D01*
X77734060Y-105990736D01*
X77734060Y-104742250D01*
X77872376Y-104742250D01*
X77875903Y-104811854D01*
X77887785Y-104860169D01*
X77909980Y-104890231D01*
X77944441Y-104905071D01*
X77979258Y-104908036D01*
X78018671Y-104904628D01*
X78044829Y-104891217D01*
X78061186Y-104873496D01*
X78074063Y-104854435D01*
X78081728Y-104833201D01*
X78085139Y-104803449D01*
X78085251Y-104758836D01*
X78084103Y-104721480D01*
X78081468Y-104665204D01*
X78077544Y-104628258D01*
X78070937Y-104604823D01*
X78060251Y-104589080D01*
X78050167Y-104579980D01*
X78008030Y-104560137D01*
X77958160Y-104556932D01*
X77929524Y-104563768D01*
X77901172Y-104588064D01*
X77882391Y-104635328D01*
X77873288Y-104705224D01*
X77872376Y-104742250D01*
X77734060Y-104742250D01*
X77734060Y-104430214D01*
X77803218Y-104430214D01*
X77844740Y-104431856D01*
X77866162Y-104437687D01*
X77872374Y-104449061D01*
X77872376Y-104449398D01*
X77875258Y-104460538D01*
X77887970Y-104459273D01*
X77913243Y-104447033D01*
X77972131Y-104428307D01*
X78038385Y-104426339D01*
X78101241Y-104440784D01*
X78101241Y-104440784D01*
G37*
X78101241Y-104440784D02*
X78127753Y-104453882D01*
X78160447Y-104476706D01*
X78184275Y-104501596D01*
X78200594Y-104532849D01*
X78210760Y-104574766D01*
X78216128Y-104631644D01*
X78218056Y-104707784D01*
X78218169Y-104740517D01*
X78217839Y-104812256D01*
X78216473Y-104863527D01*
X78213500Y-104899004D01*
X78208351Y-104923363D01*
X78200457Y-104941280D01*
X78192243Y-104953502D01*
X78139813Y-105005505D01*
X78078070Y-105036784D01*
X78011464Y-105046192D01*
X77944442Y-105032580D01*
X77923208Y-105022954D01*
X77872376Y-104996459D01*
X77872376Y-105411652D01*
X77909475Y-105392468D01*
X77958357Y-105377625D01*
X78018439Y-105373822D01*
X78078436Y-105380843D01*
X78123744Y-105396613D01*
X78161325Y-105426647D01*
X78193436Y-105469624D01*
X78195850Y-105474036D01*
X78206033Y-105494821D01*
X78213470Y-105515770D01*
X78218589Y-105541148D01*
X78221819Y-105575218D01*
X78223587Y-105622241D01*
X78224323Y-105686482D01*
X78224456Y-105758776D01*
X78224456Y-105989422D01*
X78086139Y-105989422D01*
X78086139Y-105564133D01*
X78047451Y-105531579D01*
X78007262Y-105505540D01*
X77969203Y-105500805D01*
X77930934Y-105512989D01*
X77910538Y-105524920D01*
X77895358Y-105541913D01*
X77884562Y-105567595D01*
X77877317Y-105605591D01*
X77872792Y-105659526D01*
X77870156Y-105733025D01*
X77869228Y-105781947D01*
X77866089Y-105983135D01*
X77800074Y-105986936D01*
X77734060Y-105990736D01*
X77734060Y-104742250D01*
X77872376Y-104742250D01*
X77875903Y-104811854D01*
X77887785Y-104860169D01*
X77909980Y-104890231D01*
X77944441Y-104905071D01*
X77979258Y-104908036D01*
X78018671Y-104904628D01*
X78044829Y-104891217D01*
X78061186Y-104873496D01*
X78074063Y-104854435D01*
X78081728Y-104833201D01*
X78085139Y-104803449D01*
X78085251Y-104758836D01*
X78084103Y-104721480D01*
X78081468Y-104665204D01*
X78077544Y-104628258D01*
X78070937Y-104604823D01*
X78060251Y-104589080D01*
X78050167Y-104579980D01*
X78008030Y-104560137D01*
X77958160Y-104556932D01*
X77929524Y-104563768D01*
X77901172Y-104588064D01*
X77882391Y-104635328D01*
X77873288Y-104705224D01*
X77872376Y-104742250D01*
X77734060Y-104742250D01*
X77734060Y-104430214D01*
X77803218Y-104430214D01*
X77844740Y-104431856D01*
X77866162Y-104437687D01*
X77872374Y-104449061D01*
X77872376Y-104449398D01*
X77875258Y-104460538D01*
X77887970Y-104459273D01*
X77913243Y-104447033D01*
X77972131Y-104428307D01*
X78038385Y-104426339D01*
X78101241Y-104440784D01*
G36*
X78625790Y-105378155D02*
X78684945Y-105393939D01*
X78729977Y-105422548D01*
X78761754Y-105460019D01*
X78771634Y-105476011D01*
X78778927Y-105492763D01*
X78784026Y-105514192D01*
X78787321Y-105544216D01*
X78789203Y-105586754D01*
X78790063Y-105645722D01*
X78790293Y-105725040D01*
X78790297Y-105746084D01*
X78790297Y-105989422D01*
X78729941Y-105989422D01*
X78691443Y-105986726D01*
X78662977Y-105979895D01*
X78655845Y-105975683D01*
X78636348Y-105968413D01*
X78616434Y-105975683D01*
X78583647Y-105984760D01*
X78536022Y-105988413D01*
X78483236Y-105986828D01*
X78434964Y-105980189D01*
X78406782Y-105971672D01*
X78352247Y-105936663D01*
X78318165Y-105888079D01*
X78302843Y-105823482D01*
X78302701Y-105821823D01*
X78304045Y-105793166D01*
X78425644Y-105793166D01*
X78436274Y-105825761D01*
X78453590Y-105844105D01*
X78488348Y-105857979D01*
X78534227Y-105863517D01*
X78581012Y-105860791D01*
X78618486Y-105849874D01*
X78628985Y-105842869D01*
X78647332Y-105810504D01*
X78651980Y-105773711D01*
X78651980Y-105725363D01*
X78582418Y-105725363D01*
X78516333Y-105730450D01*
X78466236Y-105744863D01*
X78435071Y-105767329D01*
X78425644Y-105793166D01*
X78304045Y-105793166D01*
X78306013Y-105751247D01*
X78329290Y-105695445D01*
X78373052Y-105653247D01*
X78379101Y-105649408D01*
X78405093Y-105636909D01*
X78437265Y-105629340D01*
X78482240Y-105625661D01*
X78535669Y-105624816D01*
X78651980Y-105624769D01*
X78651980Y-105576011D01*
X78647047Y-105538181D01*
X78634457Y-105512836D01*
X78632983Y-105511487D01*
X78604966Y-105500400D01*
X78562674Y-105496103D01*
X78515936Y-105498215D01*
X78474582Y-105506356D01*
X78450043Y-105518565D01*
X78436747Y-105528346D01*
X78422706Y-105530213D01*
X78403329Y-105522200D01*
X78374024Y-105502339D01*
X78330197Y-105468663D01*
X78326175Y-105465509D01*
X78328236Y-105453836D01*
X78345432Y-105434422D01*
X78371567Y-105412848D01*
X78400448Y-105394696D01*
X78409522Y-105390409D01*
X78442620Y-105381856D01*
X78491120Y-105375755D01*
X78545305Y-105373308D01*
X78547839Y-105373303D01*
X78625790Y-105378155D01*
X78625790Y-105378155D01*
G37*
X78625790Y-105378155D02*
X78684945Y-105393939D01*
X78729977Y-105422548D01*
X78761754Y-105460019D01*
X78771634Y-105476011D01*
X78778927Y-105492763D01*
X78784026Y-105514192D01*
X78787321Y-105544216D01*
X78789203Y-105586754D01*
X78790063Y-105645722D01*
X78790293Y-105725040D01*
X78790297Y-105746084D01*
X78790297Y-105989422D01*
X78729941Y-105989422D01*
X78691443Y-105986726D01*
X78662977Y-105979895D01*
X78655845Y-105975683D01*
X78636348Y-105968413D01*
X78616434Y-105975683D01*
X78583647Y-105984760D01*
X78536022Y-105988413D01*
X78483236Y-105986828D01*
X78434964Y-105980189D01*
X78406782Y-105971672D01*
X78352247Y-105936663D01*
X78318165Y-105888079D01*
X78302843Y-105823482D01*
X78302701Y-105821823D01*
X78304045Y-105793166D01*
X78425644Y-105793166D01*
X78436274Y-105825761D01*
X78453590Y-105844105D01*
X78488348Y-105857979D01*
X78534227Y-105863517D01*
X78581012Y-105860791D01*
X78618486Y-105849874D01*
X78628985Y-105842869D01*
X78647332Y-105810504D01*
X78651980Y-105773711D01*
X78651980Y-105725363D01*
X78582418Y-105725363D01*
X78516333Y-105730450D01*
X78466236Y-105744863D01*
X78435071Y-105767329D01*
X78425644Y-105793166D01*
X78304045Y-105793166D01*
X78306013Y-105751247D01*
X78329290Y-105695445D01*
X78373052Y-105653247D01*
X78379101Y-105649408D01*
X78405093Y-105636909D01*
X78437265Y-105629340D01*
X78482240Y-105625661D01*
X78535669Y-105624816D01*
X78651980Y-105624769D01*
X78651980Y-105576011D01*
X78647047Y-105538181D01*
X78634457Y-105512836D01*
X78632983Y-105511487D01*
X78604966Y-105500400D01*
X78562674Y-105496103D01*
X78515936Y-105498215D01*
X78474582Y-105506356D01*
X78450043Y-105518565D01*
X78436747Y-105528346D01*
X78422706Y-105530213D01*
X78403329Y-105522200D01*
X78374024Y-105502339D01*
X78330197Y-105468663D01*
X78326175Y-105465509D01*
X78328236Y-105453836D01*
X78345432Y-105434422D01*
X78371567Y-105412848D01*
X78400448Y-105394696D01*
X78409522Y-105390409D01*
X78442620Y-105381856D01*
X78491120Y-105375755D01*
X78545305Y-105373308D01*
X78547839Y-105373303D01*
X78625790Y-105378155D01*
G36*
X79016644Y-105374620D02*
X79035461Y-105380260D01*
X79041527Y-105392653D01*
X79041782Y-105398247D01*
X79042871Y-105413830D01*
X79050368Y-105416276D01*
X79070619Y-105405593D01*
X79082649Y-105398294D01*
X79120600Y-105382663D01*
X79165928Y-105374934D01*
X79213456Y-105374340D01*
X79258005Y-105380113D01*
X79294398Y-105391484D01*
X79317457Y-105407688D01*
X79322004Y-105427955D01*
X79319709Y-105433443D01*
X79302980Y-105456226D01*
X79277037Y-105484247D01*
X79272345Y-105488777D01*
X79247617Y-105509605D01*
X79226282Y-105516335D01*
X79196445Y-105511638D01*
X79184492Y-105508517D01*
X79147295Y-105501021D01*
X79121141Y-105504392D01*
X79099054Y-105516281D01*
X79078822Y-105532235D01*
X79063921Y-105552300D01*
X79053566Y-105580302D01*
X79046971Y-105620067D01*
X79043351Y-105675423D01*
X79041922Y-105750194D01*
X79041782Y-105795340D01*
X79041782Y-105989422D01*
X78916040Y-105989422D01*
X78916040Y-105373283D01*
X78978911Y-105373283D01*
X79016644Y-105374620D01*
X79016644Y-105374620D01*
G37*
X79016644Y-105374620D02*
X79035461Y-105380260D01*
X79041527Y-105392653D01*
X79041782Y-105398247D01*
X79042871Y-105413830D01*
X79050368Y-105416276D01*
X79070619Y-105405593D01*
X79082649Y-105398294D01*
X79120600Y-105382663D01*
X79165928Y-105374934D01*
X79213456Y-105374340D01*
X79258005Y-105380113D01*
X79294398Y-105391484D01*
X79317457Y-105407688D01*
X79322004Y-105427955D01*
X79319709Y-105433443D01*
X79302980Y-105456226D01*
X79277037Y-105484247D01*
X79272345Y-105488777D01*
X79247617Y-105509605D01*
X79226282Y-105516335D01*
X79196445Y-105511638D01*
X79184492Y-105508517D01*
X79147295Y-105501021D01*
X79121141Y-105504392D01*
X79099054Y-105516281D01*
X79078822Y-105532235D01*
X79063921Y-105552300D01*
X79053566Y-105580302D01*
X79046971Y-105620067D01*
X79043351Y-105675423D01*
X79041922Y-105750194D01*
X79041782Y-105795340D01*
X79041782Y-105989422D01*
X78916040Y-105989422D01*
X78916040Y-105373283D01*
X78978911Y-105373283D01*
X79016644Y-105374620D01*
G36*
X79808812Y-105989422D02*
X79739654Y-105989422D01*
X79699512Y-105988245D01*
X79678606Y-105983372D01*
X79671078Y-105972786D01*
X79670495Y-105965629D01*
X79669226Y-105951276D01*
X79661221Y-105948523D01*
X79640185Y-105957371D01*
X79623827Y-105965629D01*
X79561023Y-105985197D01*
X79492752Y-105986329D01*
X79437248Y-105971735D01*
X79385562Y-105936477D01*
X79346162Y-105884435D01*
X79324587Y-105823050D01*
X79324038Y-105819618D01*
X79320833Y-105782171D01*
X79319239Y-105728413D01*
X79319367Y-105687755D01*
X79456721Y-105687755D01*
X79459903Y-105741794D01*
X79467141Y-105786335D01*
X79476940Y-105811488D01*
X79514011Y-105845860D01*
X79558026Y-105858182D01*
X79603416Y-105848218D01*
X79642203Y-105818495D01*
X79656892Y-105798505D01*
X79665481Y-105774650D01*
X79669504Y-105739830D01*
X79670495Y-105687530D01*
X79668722Y-105635739D01*
X79664037Y-105590234D01*
X79657397Y-105559781D01*
X79656290Y-105557052D01*
X79629509Y-105524600D01*
X79590421Y-105506783D01*
X79546685Y-105503906D01*
X79505962Y-105516274D01*
X79475913Y-105544193D01*
X79472796Y-105549748D01*
X79463039Y-105583622D01*
X79457723Y-105632328D01*
X79456721Y-105687755D01*
X79319367Y-105687755D01*
X79319432Y-105667140D01*
X79320336Y-105634163D01*
X79326486Y-105552581D01*
X79339267Y-105491330D01*
X79360529Y-105446049D01*
X79392122Y-105412379D01*
X79422793Y-105392614D01*
X79465646Y-105378720D01*
X79518944Y-105373954D01*
X79573520Y-105377836D01*
X79620208Y-105389882D01*
X79644876Y-105404293D01*
X79670495Y-105427478D01*
X79670495Y-105134373D01*
X79808812Y-105134373D01*
X79808812Y-105989422D01*
X79808812Y-105989422D01*
G37*
X79808812Y-105989422D02*
X79739654Y-105989422D01*
X79699512Y-105988245D01*
X79678606Y-105983372D01*
X79671078Y-105972786D01*
X79670495Y-105965629D01*
X79669226Y-105951276D01*
X79661221Y-105948523D01*
X79640185Y-105957371D01*
X79623827Y-105965629D01*
X79561023Y-105985197D01*
X79492752Y-105986329D01*
X79437248Y-105971735D01*
X79385562Y-105936477D01*
X79346162Y-105884435D01*
X79324587Y-105823050D01*
X79324038Y-105819618D01*
X79320833Y-105782171D01*
X79319239Y-105728413D01*
X79319367Y-105687755D01*
X79456721Y-105687755D01*
X79459903Y-105741794D01*
X79467141Y-105786335D01*
X79476940Y-105811488D01*
X79514011Y-105845860D01*
X79558026Y-105858182D01*
X79603416Y-105848218D01*
X79642203Y-105818495D01*
X79656892Y-105798505D01*
X79665481Y-105774650D01*
X79669504Y-105739830D01*
X79670495Y-105687530D01*
X79668722Y-105635739D01*
X79664037Y-105590234D01*
X79657397Y-105559781D01*
X79656290Y-105557052D01*
X79629509Y-105524600D01*
X79590421Y-105506783D01*
X79546685Y-105503906D01*
X79505962Y-105516274D01*
X79475913Y-105544193D01*
X79472796Y-105549748D01*
X79463039Y-105583622D01*
X79457723Y-105632328D01*
X79456721Y-105687755D01*
X79319367Y-105687755D01*
X79319432Y-105667140D01*
X79320336Y-105634163D01*
X79326486Y-105552581D01*
X79339267Y-105491330D01*
X79360529Y-105446049D01*
X79392122Y-105412379D01*
X79422793Y-105392614D01*
X79465646Y-105378720D01*
X79518944Y-105373954D01*
X79573520Y-105377836D01*
X79620208Y-105389882D01*
X79644876Y-105404293D01*
X79670495Y-105427478D01*
X79670495Y-105134373D01*
X79808812Y-105134373D01*
X79808812Y-105989422D01*
G36*
X80291524Y-105375837D02*
X80341255Y-105379571D01*
X80471291Y-105769373D01*
X80491678Y-105700214D01*
X80503946Y-105657474D01*
X80520085Y-105599715D01*
X80537512Y-105536225D01*
X80546726Y-105502170D01*
X80581388Y-105373283D01*
X80724391Y-105373283D01*
X80681646Y-105508457D01*
X80660596Y-105574942D01*
X80635167Y-105655139D01*
X80608610Y-105738793D01*
X80584902Y-105813382D01*
X80530902Y-105983135D01*
X80472598Y-105986928D01*
X80414295Y-105990722D01*
X80382679Y-105886334D01*
X80363182Y-105821489D01*
X80341904Y-105750000D01*
X80323308Y-105686863D01*
X80322574Y-105684350D01*
X80308684Y-105641569D01*
X80296429Y-105612379D01*
X80287846Y-105601341D01*
X80286082Y-105602618D01*
X80279891Y-105619730D01*
X80268128Y-105656387D01*
X80252225Y-105707978D01*
X80233614Y-105769894D01*
X80223543Y-105803952D01*
X80169007Y-105989422D01*
X80053264Y-105989422D01*
X79960737Y-105697071D01*
X79934744Y-105615062D01*
X79911066Y-105540587D01*
X79890820Y-105477144D01*
X79875126Y-105428232D01*
X79865102Y-105397349D01*
X79862055Y-105388326D01*
X79864467Y-105379087D01*
X79883408Y-105375041D01*
X79922823Y-105375446D01*
X79928993Y-105375752D01*
X80002086Y-105379571D01*
X80049957Y-105555610D01*
X80067553Y-105619811D01*
X80083277Y-105676249D01*
X80095746Y-105720022D01*
X80103574Y-105746230D01*
X80105020Y-105750503D01*
X80111014Y-105745590D01*
X80123101Y-105720132D01*
X80139893Y-105677597D01*
X80160003Y-105621450D01*
X80177003Y-105570730D01*
X80241794Y-105372104D01*
X80291524Y-105375837D01*
X80291524Y-105375837D01*
G37*
X80291524Y-105375837D02*
X80341255Y-105379571D01*
X80471291Y-105769373D01*
X80491678Y-105700214D01*
X80503946Y-105657474D01*
X80520085Y-105599715D01*
X80537512Y-105536225D01*
X80546726Y-105502170D01*
X80581388Y-105373283D01*
X80724391Y-105373283D01*
X80681646Y-105508457D01*
X80660596Y-105574942D01*
X80635167Y-105655139D01*
X80608610Y-105738793D01*
X80584902Y-105813382D01*
X80530902Y-105983135D01*
X80472598Y-105986928D01*
X80414295Y-105990722D01*
X80382679Y-105886334D01*
X80363182Y-105821489D01*
X80341904Y-105750000D01*
X80323308Y-105686863D01*
X80322574Y-105684350D01*
X80308684Y-105641569D01*
X80296429Y-105612379D01*
X80287846Y-105601341D01*
X80286082Y-105602618D01*
X80279891Y-105619730D01*
X80268128Y-105656387D01*
X80252225Y-105707978D01*
X80233614Y-105769894D01*
X80223543Y-105803952D01*
X80169007Y-105989422D01*
X80053264Y-105989422D01*
X79960737Y-105697071D01*
X79934744Y-105615062D01*
X79911066Y-105540587D01*
X79890820Y-105477144D01*
X79875126Y-105428232D01*
X79865102Y-105397349D01*
X79862055Y-105388326D01*
X79864467Y-105379087D01*
X79883408Y-105375041D01*
X79922823Y-105375446D01*
X79928993Y-105375752D01*
X80002086Y-105379571D01*
X80049957Y-105555610D01*
X80067553Y-105619811D01*
X80083277Y-105676249D01*
X80095746Y-105720022D01*
X80103574Y-105746230D01*
X80105020Y-105750503D01*
X80111014Y-105745590D01*
X80123101Y-105720132D01*
X80139893Y-105677597D01*
X80160003Y-105621450D01*
X80177003Y-105570730D01*
X80241794Y-105372104D01*
X80291524Y-105375837D01*
G36*
X81048411Y-105377017D02*
X81101411Y-105389890D01*
X81116731Y-105396710D01*
X81146428Y-105414574D01*
X81169220Y-105434693D01*
X81186083Y-105460562D01*
X81197998Y-105495673D01*
X81205942Y-105543520D01*
X81210894Y-105607596D01*
X81213831Y-105691394D01*
X81214947Y-105747368D01*
X81219052Y-105989422D01*
X81148932Y-105989422D01*
X81106393Y-105987638D01*
X81084476Y-105981542D01*
X81078812Y-105971306D01*
X81075821Y-105960237D01*
X81062451Y-105962354D01*
X81044233Y-105971229D01*
X80998624Y-105984833D01*
X80940007Y-105988499D01*
X80878354Y-105982503D01*
X80823638Y-105967121D01*
X80818730Y-105964986D01*
X80768723Y-105929855D01*
X80735756Y-105881019D01*
X80720587Y-105823933D01*
X80721746Y-105803424D01*
X80845508Y-105803424D01*
X80856413Y-105831025D01*
X80888745Y-105850804D01*
X80940910Y-105861419D01*
X80968787Y-105862828D01*
X81015247Y-105859220D01*
X81046129Y-105845197D01*
X81053664Y-105838531D01*
X81074076Y-105802266D01*
X81078812Y-105769373D01*
X81078812Y-105725363D01*
X81017513Y-105725363D01*
X80946256Y-105728995D01*
X80896276Y-105740418D01*
X80864696Y-105760424D01*
X80857626Y-105769343D01*
X80845508Y-105803424D01*
X80721746Y-105803424D01*
X80723971Y-105764056D01*
X80746663Y-105706844D01*
X80777624Y-105668180D01*
X80796376Y-105651464D01*
X80814733Y-105640478D01*
X80838619Y-105633780D01*
X80873957Y-105629926D01*
X80926669Y-105627473D01*
X80947577Y-105626768D01*
X81078812Y-105622479D01*
X81078620Y-105582758D01*
X81073537Y-105541005D01*
X81055162Y-105515758D01*
X81018039Y-105499630D01*
X81017043Y-105499342D01*
X80964410Y-105493000D01*
X80912906Y-105501284D01*
X80874630Y-105521427D01*
X80859272Y-105531373D01*
X80842730Y-105529997D01*
X80817275Y-105515587D01*
X80802328Y-105505417D01*
X80773091Y-105483688D01*
X80754980Y-105467400D01*
X80752074Y-105462737D01*
X80764040Y-105438605D01*
X80799396Y-105409785D01*
X80814753Y-105400061D01*
X80858901Y-105383314D01*
X80918398Y-105373827D01*
X80984487Y-105371695D01*
X81048411Y-105377017D01*
X81048411Y-105377017D01*
G37*
X81048411Y-105377017D02*
X81101411Y-105389890D01*
X81116731Y-105396710D01*
X81146428Y-105414574D01*
X81169220Y-105434693D01*
X81186083Y-105460562D01*
X81197998Y-105495673D01*
X81205942Y-105543520D01*
X81210894Y-105607596D01*
X81213831Y-105691394D01*
X81214947Y-105747368D01*
X81219052Y-105989422D01*
X81148932Y-105989422D01*
X81106393Y-105987638D01*
X81084476Y-105981542D01*
X81078812Y-105971306D01*
X81075821Y-105960237D01*
X81062451Y-105962354D01*
X81044233Y-105971229D01*
X80998624Y-105984833D01*
X80940007Y-105988499D01*
X80878354Y-105982503D01*
X80823638Y-105967121D01*
X80818730Y-105964986D01*
X80768723Y-105929855D01*
X80735756Y-105881019D01*
X80720587Y-105823933D01*
X80721746Y-105803424D01*
X80845508Y-105803424D01*
X80856413Y-105831025D01*
X80888745Y-105850804D01*
X80940910Y-105861419D01*
X80968787Y-105862828D01*
X81015247Y-105859220D01*
X81046129Y-105845197D01*
X81053664Y-105838531D01*
X81074076Y-105802266D01*
X81078812Y-105769373D01*
X81078812Y-105725363D01*
X81017513Y-105725363D01*
X80946256Y-105728995D01*
X80896276Y-105740418D01*
X80864696Y-105760424D01*
X80857626Y-105769343D01*
X80845508Y-105803424D01*
X80721746Y-105803424D01*
X80723971Y-105764056D01*
X80746663Y-105706844D01*
X80777624Y-105668180D01*
X80796376Y-105651464D01*
X80814733Y-105640478D01*
X80838619Y-105633780D01*
X80873957Y-105629926D01*
X80926669Y-105627473D01*
X80947577Y-105626768D01*
X81078812Y-105622479D01*
X81078620Y-105582758D01*
X81073537Y-105541005D01*
X81055162Y-105515758D01*
X81018039Y-105499630D01*
X81017043Y-105499342D01*
X80964410Y-105493000D01*
X80912906Y-105501284D01*
X80874630Y-105521427D01*
X80859272Y-105531373D01*
X80842730Y-105529997D01*
X80817275Y-105515587D01*
X80802328Y-105505417D01*
X80773091Y-105483688D01*
X80754980Y-105467400D01*
X80752074Y-105462737D01*
X80764040Y-105438605D01*
X80799396Y-105409785D01*
X80814753Y-105400061D01*
X80858901Y-105383314D01*
X80918398Y-105373827D01*
X80984487Y-105371695D01*
X81048411Y-105377017D01*
G36*
X81645255Y-105373086D02*
X81693595Y-105382615D01*
X81721114Y-105396725D01*
X81750064Y-105420168D01*
X81708876Y-105472171D01*
X81683482Y-105503664D01*
X81666238Y-105519028D01*
X81649102Y-105521376D01*
X81624027Y-105513817D01*
X81612257Y-105509541D01*
X81564270Y-105503231D01*
X81520324Y-105516756D01*
X81488060Y-105547310D01*
X81482819Y-105557052D01*
X81477112Y-105582858D01*
X81472706Y-105630417D01*
X81469811Y-105696358D01*
X81468631Y-105777310D01*
X81468614Y-105788826D01*
X81468614Y-105989422D01*
X81330297Y-105989422D01*
X81330297Y-105373283D01*
X81399456Y-105373283D01*
X81439333Y-105374325D01*
X81460107Y-105378958D01*
X81467789Y-105389449D01*
X81468614Y-105399345D01*
X81468614Y-105425406D01*
X81501745Y-105399345D01*
X81539735Y-105381565D01*
X81590770Y-105372774D01*
X81645255Y-105373086D01*
X81645255Y-105373086D01*
G37*
X81645255Y-105373086D02*
X81693595Y-105382615D01*
X81721114Y-105396725D01*
X81750064Y-105420168D01*
X81708876Y-105472171D01*
X81683482Y-105503664D01*
X81666238Y-105519028D01*
X81649102Y-105521376D01*
X81624027Y-105513817D01*
X81612257Y-105509541D01*
X81564270Y-105503231D01*
X81520324Y-105516756D01*
X81488060Y-105547310D01*
X81482819Y-105557052D01*
X81477112Y-105582858D01*
X81472706Y-105630417D01*
X81469811Y-105696358D01*
X81468631Y-105777310D01*
X81468614Y-105788826D01*
X81468614Y-105989422D01*
X81330297Y-105989422D01*
X81330297Y-105373283D01*
X81399456Y-105373283D01*
X81439333Y-105374325D01*
X81460107Y-105378958D01*
X81467789Y-105389449D01*
X81468614Y-105399345D01*
X81468614Y-105425406D01*
X81501745Y-105399345D01*
X81539735Y-105381565D01*
X81590770Y-105372774D01*
X81645255Y-105373086D01*
G36*
X82042581Y-105376570D02*
X82102685Y-105392197D01*
X82153021Y-105424448D01*
X82177393Y-105448540D01*
X82217345Y-105505495D01*
X82240242Y-105571565D01*
X82248108Y-105652782D01*
X82248148Y-105659348D01*
X82248218Y-105725363D01*
X81868264Y-105725363D01*
X81876363Y-105759942D01*
X81890987Y-105791259D01*
X81916581Y-105823891D01*
X81921935Y-105829100D01*
X81967943Y-105857294D01*
X82020410Y-105862075D01*
X82080803Y-105843526D01*
X82091040Y-105838531D01*
X82122439Y-105823345D01*
X82143470Y-105814694D01*
X82147139Y-105813893D01*
X82159948Y-105821663D01*
X82184378Y-105840672D01*
X82196779Y-105851060D01*
X82222476Y-105874921D01*
X82230915Y-105890677D01*
X82225058Y-105905171D01*
X82221928Y-105909134D01*
X82200725Y-105926479D01*
X82165738Y-105947559D01*
X82141337Y-105959865D01*
X82072072Y-105981546D01*
X81995388Y-105988571D01*
X81922765Y-105980247D01*
X81902426Y-105974286D01*
X81839476Y-105940552D01*
X81792815Y-105888645D01*
X81762173Y-105818059D01*
X81747282Y-105728292D01*
X81745647Y-105681353D01*
X81750421Y-105613013D01*
X81870990Y-105613013D01*
X81882652Y-105618065D01*
X81913998Y-105622029D01*
X81959571Y-105624368D01*
X81990446Y-105624769D01*
X82045981Y-105624383D01*
X82081033Y-105622575D01*
X82100262Y-105618373D01*
X82108330Y-105610803D01*
X82109901Y-105599818D01*
X82099121Y-105565981D01*
X82071980Y-105532540D01*
X82036277Y-105506872D01*
X82000560Y-105496372D01*
X81952048Y-105505686D01*
X81910053Y-105532613D01*
X81880936Y-105571427D01*
X81870990Y-105613013D01*
X81750421Y-105613013D01*
X81752599Y-105581836D01*
X81774055Y-105502549D01*
X81810470Y-105442863D01*
X81862297Y-105402149D01*
X81929990Y-105379779D01*
X81966662Y-105375471D01*
X82042581Y-105376570D01*
X82042581Y-105376570D01*
G37*
X82042581Y-105376570D02*
X82102685Y-105392197D01*
X82153021Y-105424448D01*
X82177393Y-105448540D01*
X82217345Y-105505495D01*
X82240242Y-105571565D01*
X82248108Y-105652782D01*
X82248148Y-105659348D01*
X82248218Y-105725363D01*
X81868264Y-105725363D01*
X81876363Y-105759942D01*
X81890987Y-105791259D01*
X81916581Y-105823891D01*
X81921935Y-105829100D01*
X81967943Y-105857294D01*
X82020410Y-105862075D01*
X82080803Y-105843526D01*
X82091040Y-105838531D01*
X82122439Y-105823345D01*
X82143470Y-105814694D01*
X82147139Y-105813893D01*
X82159948Y-105821663D01*
X82184378Y-105840672D01*
X82196779Y-105851060D01*
X82222476Y-105874921D01*
X82230915Y-105890677D01*
X82225058Y-105905171D01*
X82221928Y-105909134D01*
X82200725Y-105926479D01*
X82165738Y-105947559D01*
X82141337Y-105959865D01*
X82072072Y-105981546D01*
X81995388Y-105988571D01*
X81922765Y-105980247D01*
X81902426Y-105974286D01*
X81839476Y-105940552D01*
X81792815Y-105888645D01*
X81762173Y-105818059D01*
X81747282Y-105728292D01*
X81745647Y-105681353D01*
X81750421Y-105613013D01*
X81870990Y-105613013D01*
X81882652Y-105618065D01*
X81913998Y-105622029D01*
X81959571Y-105624368D01*
X81990446Y-105624769D01*
X82045981Y-105624383D01*
X82081033Y-105622575D01*
X82100262Y-105618373D01*
X82108330Y-105610803D01*
X82109901Y-105599818D01*
X82099121Y-105565981D01*
X82071980Y-105532540D01*
X82036277Y-105506872D01*
X82000560Y-105496372D01*
X81952048Y-105505686D01*
X81910053Y-105532613D01*
X81880936Y-105571427D01*
X81870990Y-105613013D01*
X81750421Y-105613013D01*
X81752599Y-105581836D01*
X81774055Y-105502549D01*
X81810470Y-105442863D01*
X81862297Y-105402149D01*
X81929990Y-105379779D01*
X81966662Y-105375471D01*
X82042581Y-105376570D01*
G36*
X77471739Y-104436748D02*
X77537521Y-104465831D01*
X77587460Y-104514393D01*
X77621626Y-104582508D01*
X77640093Y-104670251D01*
X77641417Y-104683951D01*
X77642454Y-104780539D01*
X77629007Y-104865202D01*
X77601892Y-104933821D01*
X77587373Y-104955894D01*
X77536799Y-105002611D01*
X77472391Y-105032868D01*
X77400334Y-105045424D01*
X77326815Y-105039039D01*
X77270928Y-105019372D01*
X77222868Y-104986229D01*
X77183588Y-104942775D01*
X77182908Y-104941758D01*
X77166956Y-104914938D01*
X77156590Y-104887968D01*
X77150312Y-104853932D01*
X77146627Y-104805910D01*
X77145003Y-104766531D01*
X77144328Y-104730819D01*
X77270045Y-104730819D01*
X77271274Y-104766370D01*
X77275734Y-104813694D01*
X77283603Y-104844065D01*
X77297793Y-104865672D01*
X77311083Y-104878294D01*
X77358198Y-104904722D01*
X77407495Y-104908253D01*
X77453407Y-104889239D01*
X77476362Y-104867931D01*
X77492904Y-104846459D01*
X77502579Y-104825913D01*
X77506826Y-104799174D01*
X77507080Y-104759123D01*
X77505772Y-104722238D01*
X77502957Y-104669547D01*
X77498495Y-104635372D01*
X77490452Y-104613080D01*
X77476897Y-104596042D01*
X77466155Y-104586303D01*
X77421223Y-104560723D01*
X77372751Y-104559447D01*
X77332106Y-104574599D01*
X77297433Y-104606242D01*
X77276776Y-104658220D01*
X77270045Y-104730819D01*
X77144328Y-104730819D01*
X77143521Y-104688221D01*
X77146052Y-104629656D01*
X77153638Y-104585607D01*
X77167319Y-104550848D01*
X77188135Y-104520151D01*
X77195853Y-104511036D01*
X77244111Y-104465621D01*
X77295872Y-104439093D01*
X77359172Y-104427979D01*
X77390039Y-104427071D01*
X77471739Y-104436748D01*
X77471739Y-104436748D01*
G37*
X77471739Y-104436748D02*
X77537521Y-104465831D01*
X77587460Y-104514393D01*
X77621626Y-104582508D01*
X77640093Y-104670251D01*
X77641417Y-104683951D01*
X77642454Y-104780539D01*
X77629007Y-104865202D01*
X77601892Y-104933821D01*
X77587373Y-104955894D01*
X77536799Y-105002611D01*
X77472391Y-105032868D01*
X77400334Y-105045424D01*
X77326815Y-105039039D01*
X77270928Y-105019372D01*
X77222868Y-104986229D01*
X77183588Y-104942775D01*
X77182908Y-104941758D01*
X77166956Y-104914938D01*
X77156590Y-104887968D01*
X77150312Y-104853932D01*
X77146627Y-104805910D01*
X77145003Y-104766531D01*
X77144328Y-104730819D01*
X77270045Y-104730819D01*
X77271274Y-104766370D01*
X77275734Y-104813694D01*
X77283603Y-104844065D01*
X77297793Y-104865672D01*
X77311083Y-104878294D01*
X77358198Y-104904722D01*
X77407495Y-104908253D01*
X77453407Y-104889239D01*
X77476362Y-104867931D01*
X77492904Y-104846459D01*
X77502579Y-104825913D01*
X77506826Y-104799174D01*
X77507080Y-104759123D01*
X77505772Y-104722238D01*
X77502957Y-104669547D01*
X77498495Y-104635372D01*
X77490452Y-104613080D01*
X77476897Y-104596042D01*
X77466155Y-104586303D01*
X77421223Y-104560723D01*
X77372751Y-104559447D01*
X77332106Y-104574599D01*
X77297433Y-104606242D01*
X77276776Y-104658220D01*
X77270045Y-104730819D01*
X77144328Y-104730819D01*
X77143521Y-104688221D01*
X77146052Y-104629656D01*
X77153638Y-104585607D01*
X77167319Y-104550848D01*
X77188135Y-104520151D01*
X77195853Y-104511036D01*
X77244111Y-104465621D01*
X77295872Y-104439093D01*
X77359172Y-104427979D01*
X77390039Y-104427071D01*
X77471739Y-104436748D01*
G36*
X78653301Y-104444214D02*
X78665832Y-104450114D01*
X78709201Y-104481883D01*
X78750210Y-104528246D01*
X78780832Y-104579296D01*
X78789541Y-104602766D01*
X78797488Y-104644691D01*
X78802226Y-104695357D01*
X78802801Y-104716279D01*
X78802871Y-104782293D01*
X78422917Y-104782293D01*
X78431017Y-104816873D01*
X78450896Y-104857770D01*
X78485653Y-104893114D01*
X78527002Y-104915882D01*
X78553351Y-104920610D01*
X78589084Y-104914873D01*
X78631718Y-104900482D01*
X78646201Y-104893862D01*
X78699760Y-104867113D01*
X78745467Y-104901976D01*
X78771842Y-104925555D01*
X78785876Y-104945017D01*
X78786586Y-104950729D01*
X78774049Y-104964573D01*
X78746572Y-104985612D01*
X78721634Y-105002025D01*
X78654336Y-105031530D01*
X78578890Y-105044884D01*
X78504112Y-105041412D01*
X78444505Y-105023263D01*
X78383059Y-104984384D01*
X78339392Y-104933195D01*
X78312074Y-104866967D01*
X78299678Y-104782971D01*
X78298579Y-104744536D01*
X78302978Y-104656461D01*
X78303518Y-104653899D01*
X78429418Y-104653899D01*
X78432885Y-104662158D01*
X78447137Y-104666713D01*
X78476530Y-104668665D01*
X78525425Y-104669117D01*
X78544252Y-104669125D01*
X78601533Y-104668443D01*
X78637859Y-104665964D01*
X78657396Y-104661043D01*
X78664310Y-104653034D01*
X78664555Y-104650462D01*
X78656664Y-104630023D01*
X78636915Y-104601389D01*
X78628425Y-104591363D01*
X78596906Y-104563008D01*
X78564051Y-104551859D01*
X78546349Y-104550927D01*
X78498461Y-104562581D01*
X78458301Y-104593885D01*
X78432827Y-104639352D01*
X78432375Y-104640833D01*
X78429418Y-104653899D01*
X78303518Y-104653899D01*
X78317608Y-104587110D01*
X78343962Y-104531625D01*
X78376193Y-104492239D01*
X78435783Y-104449531D01*
X78505832Y-104426709D01*
X78580339Y-104424646D01*
X78653301Y-104444214D01*
X78653301Y-104444214D01*
G37*
X78653301Y-104444214D02*
X78665832Y-104450114D01*
X78709201Y-104481883D01*
X78750210Y-104528246D01*
X78780832Y-104579296D01*
X78789541Y-104602766D01*
X78797488Y-104644691D01*
X78802226Y-104695357D01*
X78802801Y-104716279D01*
X78802871Y-104782293D01*
X78422917Y-104782293D01*
X78431017Y-104816873D01*
X78450896Y-104857770D01*
X78485653Y-104893114D01*
X78527002Y-104915882D01*
X78553351Y-104920610D01*
X78589084Y-104914873D01*
X78631718Y-104900482D01*
X78646201Y-104893862D01*
X78699760Y-104867113D01*
X78745467Y-104901976D01*
X78771842Y-104925555D01*
X78785876Y-104945017D01*
X78786586Y-104950729D01*
X78774049Y-104964573D01*
X78746572Y-104985612D01*
X78721634Y-105002025D01*
X78654336Y-105031530D01*
X78578890Y-105044884D01*
X78504112Y-105041412D01*
X78444505Y-105023263D01*
X78383059Y-104984384D01*
X78339392Y-104933195D01*
X78312074Y-104866967D01*
X78299678Y-104782971D01*
X78298579Y-104744536D01*
X78302978Y-104656461D01*
X78303518Y-104653899D01*
X78429418Y-104653899D01*
X78432885Y-104662158D01*
X78447137Y-104666713D01*
X78476530Y-104668665D01*
X78525425Y-104669117D01*
X78544252Y-104669125D01*
X78601533Y-104668443D01*
X78637859Y-104665964D01*
X78657396Y-104661043D01*
X78664310Y-104653034D01*
X78664555Y-104650462D01*
X78656664Y-104630023D01*
X78636915Y-104601389D01*
X78628425Y-104591363D01*
X78596906Y-104563008D01*
X78564051Y-104551859D01*
X78546349Y-104550927D01*
X78498461Y-104562581D01*
X78458301Y-104593885D01*
X78432827Y-104639352D01*
X78432375Y-104640833D01*
X78429418Y-104653899D01*
X78303518Y-104653899D01*
X78317608Y-104587110D01*
X78343962Y-104531625D01*
X78376193Y-104492239D01*
X78435783Y-104449531D01*
X78505832Y-104426709D01*
X78580339Y-104424646D01*
X78653301Y-104444214D01*
G36*
X80024017Y-104428052D02*
X80071634Y-104437082D01*
X80121034Y-104455970D01*
X80126312Y-104458377D01*
X80163774Y-104478076D01*
X80189717Y-104496381D01*
X80198103Y-104508108D01*
X80190117Y-104527232D01*
X80170720Y-104555450D01*
X80162110Y-104565984D01*
X80126628Y-104607447D01*
X80080885Y-104580458D01*
X80037350Y-104562478D01*
X79987050Y-104552867D01*
X79938812Y-104552260D01*
X79901467Y-104561291D01*
X79892505Y-104566927D01*
X79875437Y-104592771D01*
X79873363Y-104622541D01*
X79886134Y-104645797D01*
X79893688Y-104650308D01*
X79916325Y-104655909D01*
X79956115Y-104662492D01*
X80005166Y-104668783D01*
X80014215Y-104669770D01*
X80092996Y-104683398D01*
X80150136Y-104706546D01*
X80188030Y-104741352D01*
X80209079Y-104789954D01*
X80215635Y-104849318D01*
X80206577Y-104916798D01*
X80177164Y-104969788D01*
X80127278Y-105008383D01*
X80056800Y-105032681D01*
X79978565Y-105042267D01*
X79914766Y-105042152D01*
X79863016Y-105033445D01*
X79827673Y-105021425D01*
X79783017Y-105000480D01*
X79741747Y-104976174D01*
X79727079Y-104965476D01*
X79689357Y-104934684D01*
X79734852Y-104888649D01*
X79780347Y-104842613D01*
X79832072Y-104876843D01*
X79883952Y-104902552D01*
X79939351Y-104915999D01*
X79992605Y-104917418D01*
X80038049Y-104907043D01*
X80070016Y-104885107D01*
X80080338Y-104866598D01*
X80078789Y-104836914D01*
X80053140Y-104814215D01*
X80003460Y-104798540D01*
X79949031Y-104791295D01*
X79865264Y-104777473D01*
X79803033Y-104751396D01*
X79761507Y-104712299D01*
X79739853Y-104659420D01*
X79736853Y-104596726D01*
X79751671Y-104531242D01*
X79785454Y-104481744D01*
X79838505Y-104448008D01*
X79911126Y-104429807D01*
X79964928Y-104426239D01*
X80024017Y-104428052D01*
X80024017Y-104428052D01*
G37*
X80024017Y-104428052D02*
X80071634Y-104437082D01*
X80121034Y-104455970D01*
X80126312Y-104458377D01*
X80163774Y-104478076D01*
X80189717Y-104496381D01*
X80198103Y-104508108D01*
X80190117Y-104527232D01*
X80170720Y-104555450D01*
X80162110Y-104565984D01*
X80126628Y-104607447D01*
X80080885Y-104580458D01*
X80037350Y-104562478D01*
X79987050Y-104552867D01*
X79938812Y-104552260D01*
X79901467Y-104561291D01*
X79892505Y-104566927D01*
X79875437Y-104592771D01*
X79873363Y-104622541D01*
X79886134Y-104645797D01*
X79893688Y-104650308D01*
X79916325Y-104655909D01*
X79956115Y-104662492D01*
X80005166Y-104668783D01*
X80014215Y-104669770D01*
X80092996Y-104683398D01*
X80150136Y-104706546D01*
X80188030Y-104741352D01*
X80209079Y-104789954D01*
X80215635Y-104849318D01*
X80206577Y-104916798D01*
X80177164Y-104969788D01*
X80127278Y-105008383D01*
X80056800Y-105032681D01*
X79978565Y-105042267D01*
X79914766Y-105042152D01*
X79863016Y-105033445D01*
X79827673Y-105021425D01*
X79783017Y-105000480D01*
X79741747Y-104976174D01*
X79727079Y-104965476D01*
X79689357Y-104934684D01*
X79734852Y-104888649D01*
X79780347Y-104842613D01*
X79832072Y-104876843D01*
X79883952Y-104902552D01*
X79939351Y-104915999D01*
X79992605Y-104917418D01*
X80038049Y-104907043D01*
X80070016Y-104885107D01*
X80080338Y-104866598D01*
X80078789Y-104836914D01*
X80053140Y-104814215D01*
X80003460Y-104798540D01*
X79949031Y-104791295D01*
X79865264Y-104777473D01*
X79803033Y-104751396D01*
X79761507Y-104712299D01*
X79739853Y-104659420D01*
X79736853Y-104596726D01*
X79751671Y-104531242D01*
X79785454Y-104481744D01*
X79838505Y-104448008D01*
X79911126Y-104429807D01*
X79964928Y-104426239D01*
X80024017Y-104428052D01*
G36*
X80620762Y-104437655D02*
X80684363Y-104472292D01*
X80734123Y-104526972D01*
X80757568Y-104571442D01*
X80767634Y-104610721D01*
X80774156Y-104666716D01*
X80776951Y-104731221D01*
X80775836Y-104796029D01*
X80770626Y-104852934D01*
X80764541Y-104883327D01*
X80744014Y-104924906D01*
X80708463Y-104969068D01*
X80665619Y-105007687D01*
X80623211Y-105032634D01*
X80622177Y-105033030D01*
X80569553Y-105043931D01*
X80507188Y-105044201D01*
X80447924Y-105034276D01*
X80425040Y-105026322D01*
X80366102Y-104992900D01*
X80323890Y-104949111D01*
X80296156Y-104891138D01*
X80280651Y-104815165D01*
X80277143Y-104775371D01*
X80277590Y-104725366D01*
X80412376Y-104725366D01*
X80416917Y-104798332D01*
X80429986Y-104853934D01*
X80450756Y-104889461D01*
X80465552Y-104899620D01*
X80503464Y-104906704D01*
X80548527Y-104904607D01*
X80587487Y-104894412D01*
X80597704Y-104888804D01*
X80624659Y-104856138D01*
X80642451Y-104806145D01*
X80650024Y-104745305D01*
X80646325Y-104680097D01*
X80638057Y-104640853D01*
X80614320Y-104595405D01*
X80576849Y-104566996D01*
X80531720Y-104557173D01*
X80485011Y-104567487D01*
X80449132Y-104592712D01*
X80430277Y-104613525D01*
X80419272Y-104634039D01*
X80414026Y-104661803D01*
X80412449Y-104704362D01*
X80412376Y-104725366D01*
X80277590Y-104725366D01*
X80278094Y-104669180D01*
X80295388Y-104582101D01*
X80329029Y-104514130D01*
X80379018Y-104465264D01*
X80445356Y-104435499D01*
X80459601Y-104432048D01*
X80545210Y-104423945D01*
X80620762Y-104437655D01*
X80620762Y-104437655D01*
G37*
X80620762Y-104437655D02*
X80684363Y-104472292D01*
X80734123Y-104526972D01*
X80757568Y-104571442D01*
X80767634Y-104610721D01*
X80774156Y-104666716D01*
X80776951Y-104731221D01*
X80775836Y-104796029D01*
X80770626Y-104852934D01*
X80764541Y-104883327D01*
X80744014Y-104924906D01*
X80708463Y-104969068D01*
X80665619Y-105007687D01*
X80623211Y-105032634D01*
X80622177Y-105033030D01*
X80569553Y-105043931D01*
X80507188Y-105044201D01*
X80447924Y-105034276D01*
X80425040Y-105026322D01*
X80366102Y-104992900D01*
X80323890Y-104949111D01*
X80296156Y-104891138D01*
X80280651Y-104815165D01*
X80277143Y-104775371D01*
X80277590Y-104725366D01*
X80412376Y-104725366D01*
X80416917Y-104798332D01*
X80429986Y-104853934D01*
X80450756Y-104889461D01*
X80465552Y-104899620D01*
X80503464Y-104906704D01*
X80548527Y-104904607D01*
X80587487Y-104894412D01*
X80597704Y-104888804D01*
X80624659Y-104856138D01*
X80642451Y-104806145D01*
X80650024Y-104745305D01*
X80646325Y-104680097D01*
X80638057Y-104640853D01*
X80614320Y-104595405D01*
X80576849Y-104566996D01*
X80531720Y-104557173D01*
X80485011Y-104567487D01*
X80449132Y-104592712D01*
X80430277Y-104613525D01*
X80419272Y-104634039D01*
X80414026Y-104661803D01*
X80412449Y-104704362D01*
X80412376Y-104725366D01*
X80277590Y-104725366D01*
X80278094Y-104669180D01*
X80295388Y-104582101D01*
X80329029Y-104514130D01*
X80379018Y-104465264D01*
X80445356Y-104435499D01*
X80459601Y-104432048D01*
X80545210Y-104423945D01*
X80620762Y-104437655D01*
G36*
X81003367Y-104625942D02*
X81004555Y-104718163D01*
X81008897Y-104788210D01*
X81017558Y-104838981D01*
X81031704Y-104873372D01*
X81052500Y-104894279D01*
X81081110Y-104904600D01*
X81116535Y-104907236D01*
X81153636Y-104904282D01*
X81181818Y-104893489D01*
X81202243Y-104871960D01*
X81216079Y-104836799D01*
X81224491Y-104785110D01*
X81228643Y-104713994D01*
X81229703Y-104625942D01*
X81229703Y-104430214D01*
X81368020Y-104430214D01*
X81368020Y-105033779D01*
X81298862Y-105033779D01*
X81257170Y-105032089D01*
X81235701Y-105026156D01*
X81229703Y-105014893D01*
X81226091Y-105004861D01*
X81211714Y-105006983D01*
X81182736Y-105021180D01*
X81116319Y-105043080D01*
X81045875Y-105041528D01*
X80978377Y-105017747D01*
X80946233Y-104998962D01*
X80921715Y-104978622D01*
X80903804Y-104953173D01*
X80891479Y-104919058D01*
X80883723Y-104872721D01*
X80879516Y-104810607D01*
X80877840Y-104729161D01*
X80877624Y-104666178D01*
X80877624Y-104430214D01*
X81003367Y-104430214D01*
X81003367Y-104625942D01*
X81003367Y-104625942D01*
G37*
X81003367Y-104625942D02*
X81004555Y-104718163D01*
X81008897Y-104788210D01*
X81017558Y-104838981D01*
X81031704Y-104873372D01*
X81052500Y-104894279D01*
X81081110Y-104904600D01*
X81116535Y-104907236D01*
X81153636Y-104904282D01*
X81181818Y-104893489D01*
X81202243Y-104871960D01*
X81216079Y-104836799D01*
X81224491Y-104785110D01*
X81228643Y-104713994D01*
X81229703Y-104625942D01*
X81229703Y-104430214D01*
X81368020Y-104430214D01*
X81368020Y-105033779D01*
X81298862Y-105033779D01*
X81257170Y-105032089D01*
X81235701Y-105026156D01*
X81229703Y-105014893D01*
X81226091Y-105004861D01*
X81211714Y-105006983D01*
X81182736Y-105021180D01*
X81116319Y-105043080D01*
X81045875Y-105041528D01*
X80978377Y-105017747D01*
X80946233Y-104998962D01*
X80921715Y-104978622D01*
X80903804Y-104953173D01*
X80891479Y-104919058D01*
X80883723Y-104872721D01*
X80879516Y-104810607D01*
X80877840Y-104729161D01*
X80877624Y-104666178D01*
X80877624Y-104430214D01*
X81003367Y-104430214D01*
X81003367Y-104625942D01*
G36*
X82227226Y-104435480D02*
X82300080Y-104466430D01*
X82323027Y-104481495D01*
X82352354Y-104504648D01*
X82370764Y-104522853D01*
X82373961Y-104528783D01*
X82364935Y-104541940D01*
X82341837Y-104564267D01*
X82323344Y-104579850D01*
X82272728Y-104620526D01*
X82232760Y-104586895D01*
X82201874Y-104565184D01*
X82171759Y-104557690D01*
X82137292Y-104559520D01*
X82082561Y-104573128D01*
X82044886Y-104601372D01*
X82021991Y-104647033D01*
X82011597Y-104712889D01*
X82011595Y-104712931D01*
X82012494Y-104786539D01*
X82026463Y-104840546D01*
X82054328Y-104877316D01*
X82073325Y-104889768D01*
X82123776Y-104905273D01*
X82177663Y-104905283D01*
X82224546Y-104890238D01*
X82235644Y-104882887D01*
X82263476Y-104864111D01*
X82285236Y-104861034D01*
X82308704Y-104875009D01*
X82334649Y-104900110D01*
X82375716Y-104942480D01*
X82330121Y-104980064D01*
X82259674Y-105022482D01*
X82180233Y-105043385D01*
X82097215Y-105041872D01*
X82042694Y-105028011D01*
X81978970Y-104993735D01*
X81928005Y-104939812D01*
X81904851Y-104901749D01*
X81886099Y-104847136D01*
X81876715Y-104777969D01*
X81876643Y-104703007D01*
X81885824Y-104631009D01*
X81904199Y-104570737D01*
X81907093Y-104564558D01*
X81949952Y-104503951D01*
X82007979Y-104459824D01*
X82076591Y-104433093D01*
X82151201Y-104424673D01*
X82227226Y-104435480D01*
X82227226Y-104435480D01*
G37*
X82227226Y-104435480D02*
X82300080Y-104466430D01*
X82323027Y-104481495D01*
X82352354Y-104504648D01*
X82370764Y-104522853D01*
X82373961Y-104528783D01*
X82364935Y-104541940D01*
X82341837Y-104564267D01*
X82323344Y-104579850D01*
X82272728Y-104620526D01*
X82232760Y-104586895D01*
X82201874Y-104565184D01*
X82171759Y-104557690D01*
X82137292Y-104559520D01*
X82082561Y-104573128D01*
X82044886Y-104601372D01*
X82021991Y-104647033D01*
X82011597Y-104712889D01*
X82011595Y-104712931D01*
X82012494Y-104786539D01*
X82026463Y-104840546D01*
X82054328Y-104877316D01*
X82073325Y-104889768D01*
X82123776Y-104905273D01*
X82177663Y-104905283D01*
X82224546Y-104890238D01*
X82235644Y-104882887D01*
X82263476Y-104864111D01*
X82285236Y-104861034D01*
X82308704Y-104875009D01*
X82334649Y-104900110D01*
X82375716Y-104942480D01*
X82330121Y-104980064D01*
X82259674Y-105022482D01*
X82180233Y-105043385D01*
X82097215Y-105041872D01*
X82042694Y-105028011D01*
X81978970Y-104993735D01*
X81928005Y-104939812D01*
X81904851Y-104901749D01*
X81886099Y-104847136D01*
X81876715Y-104777969D01*
X81876643Y-104703007D01*
X81885824Y-104631009D01*
X81904199Y-104570737D01*
X81907093Y-104564558D01*
X81949952Y-104503951D01*
X82007979Y-104459824D01*
X82076591Y-104433093D01*
X82151201Y-104424673D01*
X82227226Y-104435480D01*
G36*
X82687898Y-104428057D02*
X82720096Y-104435879D01*
X82781825Y-104464521D01*
X82834610Y-104508267D01*
X82871141Y-104560717D01*
X82876160Y-104572493D01*
X82883045Y-104603340D01*
X82887864Y-104648971D01*
X82889505Y-104695092D01*
X82889505Y-104782293D01*
X82707178Y-104782293D01*
X82631979Y-104782578D01*
X82579003Y-104784304D01*
X82545325Y-104788781D01*
X82528020Y-104797320D01*
X82524163Y-104811230D01*
X82530829Y-104831822D01*
X82542770Y-104855915D01*
X82576080Y-104896125D01*
X82622368Y-104916158D01*
X82678944Y-104915505D01*
X82743031Y-104893701D01*
X82798417Y-104866793D01*
X82844375Y-104903132D01*
X82890333Y-104939472D01*
X82847096Y-104979419D01*
X82789374Y-105017163D01*
X82718386Y-105039920D01*
X82642029Y-105046288D01*
X82568199Y-105034868D01*
X82556287Y-105030993D01*
X82491399Y-104997106D01*
X82443130Y-104946586D01*
X82410465Y-104877925D01*
X82392385Y-104789614D01*
X82392175Y-104787721D01*
X82390556Y-104691478D01*
X82397100Y-104657142D01*
X82524852Y-104657142D01*
X82536584Y-104662422D01*
X82568438Y-104666467D01*
X82615397Y-104668776D01*
X82645154Y-104669125D01*
X82700648Y-104668906D01*
X82735346Y-104667516D01*
X82753601Y-104663851D01*
X82759766Y-104656810D01*
X82758195Y-104645290D01*
X82756878Y-104640833D01*
X82734382Y-104598955D01*
X82699003Y-104565204D01*
X82667780Y-104550373D01*
X82626301Y-104551268D01*
X82584269Y-104569764D01*
X82549012Y-104600386D01*
X82527854Y-104637662D01*
X82524852Y-104657142D01*
X82397100Y-104657142D01*
X82406690Y-104606829D01*
X82438698Y-104535791D01*
X82484701Y-104480379D01*
X82542821Y-104442609D01*
X82611180Y-104424496D01*
X82687898Y-104428057D01*
X82687898Y-104428057D01*
G37*
X82687898Y-104428057D02*
X82720096Y-104435879D01*
X82781825Y-104464521D01*
X82834610Y-104508267D01*
X82871141Y-104560717D01*
X82876160Y-104572493D01*
X82883045Y-104603340D01*
X82887864Y-104648971D01*
X82889505Y-104695092D01*
X82889505Y-104782293D01*
X82707178Y-104782293D01*
X82631979Y-104782578D01*
X82579003Y-104784304D01*
X82545325Y-104788781D01*
X82528020Y-104797320D01*
X82524163Y-104811230D01*
X82530829Y-104831822D01*
X82542770Y-104855915D01*
X82576080Y-104896125D01*
X82622368Y-104916158D01*
X82678944Y-104915505D01*
X82743031Y-104893701D01*
X82798417Y-104866793D01*
X82844375Y-104903132D01*
X82890333Y-104939472D01*
X82847096Y-104979419D01*
X82789374Y-105017163D01*
X82718386Y-105039920D01*
X82642029Y-105046288D01*
X82568199Y-105034868D01*
X82556287Y-105030993D01*
X82491399Y-104997106D01*
X82443130Y-104946586D01*
X82410465Y-104877925D01*
X82392385Y-104789614D01*
X82392175Y-104787721D01*
X82390556Y-104691478D01*
X82397100Y-104657142D01*
X82524852Y-104657142D01*
X82536584Y-104662422D01*
X82568438Y-104666467D01*
X82615397Y-104668776D01*
X82645154Y-104669125D01*
X82700648Y-104668906D01*
X82735346Y-104667516D01*
X82753601Y-104663851D01*
X82759766Y-104656810D01*
X82758195Y-104645290D01*
X82756878Y-104640833D01*
X82734382Y-104598955D01*
X82699003Y-104565204D01*
X82667780Y-104550373D01*
X82626301Y-104551268D01*
X82584269Y-104569764D01*
X82549012Y-104600386D01*
X82527854Y-104637662D01*
X82524852Y-104657142D01*
X82397100Y-104657142D01*
X82406690Y-104606829D01*
X82438698Y-104535791D01*
X82484701Y-104480379D01*
X82542821Y-104442609D01*
X82611180Y-104424496D01*
X82687898Y-104428057D01*
G36*
X79255988Y-104440602D02*
X79287283Y-104455550D01*
X79317591Y-104477141D01*
X79340682Y-104501991D01*
X79357500Y-104533687D01*
X79368994Y-104575814D01*
X79376109Y-104631958D01*
X79379793Y-104705706D01*
X79380992Y-104800644D01*
X79381011Y-104810585D01*
X79381287Y-105033779D01*
X79242970Y-105033779D01*
X79242970Y-104828018D01*
X79242872Y-104751789D01*
X79242191Y-104696539D01*
X79240349Y-104658101D01*
X79236767Y-104632306D01*
X79230868Y-104614984D01*
X79222073Y-104601968D01*
X79209820Y-104589107D01*
X79166953Y-104561473D01*
X79120157Y-104556345D01*
X79075576Y-104573817D01*
X79060072Y-104586821D01*
X79048690Y-104599047D01*
X79040519Y-104612140D01*
X79035026Y-104630215D01*
X79031680Y-104657387D01*
X79029949Y-104697770D01*
X79029303Y-104755479D01*
X79029208Y-104825732D01*
X79029208Y-105033779D01*
X78890891Y-105033779D01*
X78890891Y-104430214D01*
X78960050Y-104430214D01*
X79001572Y-104431856D01*
X79022994Y-104437687D01*
X79029205Y-104449061D01*
X79029208Y-104449398D01*
X79032090Y-104460538D01*
X79044801Y-104459274D01*
X79070074Y-104447034D01*
X79127395Y-104429024D01*
X79192963Y-104427021D01*
X79255988Y-104440602D01*
X79255988Y-104440602D01*
G37*
X79255988Y-104440602D02*
X79287283Y-104455550D01*
X79317591Y-104477141D01*
X79340682Y-104501991D01*
X79357500Y-104533687D01*
X79368994Y-104575814D01*
X79376109Y-104631958D01*
X79379793Y-104705706D01*
X79380992Y-104800644D01*
X79381011Y-104810585D01*
X79381287Y-105033779D01*
X79242970Y-105033779D01*
X79242970Y-104828018D01*
X79242872Y-104751789D01*
X79242191Y-104696539D01*
X79240349Y-104658101D01*
X79236767Y-104632306D01*
X79230868Y-104614984D01*
X79222073Y-104601968D01*
X79209820Y-104589107D01*
X79166953Y-104561473D01*
X79120157Y-104556345D01*
X79075576Y-104573817D01*
X79060072Y-104586821D01*
X79048690Y-104599047D01*
X79040519Y-104612140D01*
X79035026Y-104630215D01*
X79031680Y-104657387D01*
X79029949Y-104697770D01*
X79029303Y-104755479D01*
X79029208Y-104825732D01*
X79029208Y-105033779D01*
X78890891Y-105033779D01*
X78890891Y-104430214D01*
X78960050Y-104430214D01*
X79001572Y-104431856D01*
X79022994Y-104437687D01*
X79029205Y-104449061D01*
X79029208Y-104449398D01*
X79032090Y-104460538D01*
X79044801Y-104459274D01*
X79070074Y-104447034D01*
X79127395Y-104429024D01*
X79192963Y-104427021D01*
X79255988Y-104440602D01*
G36*
X81809460Y-104429630D02*
X81852711Y-104442845D01*
X81880558Y-104459541D01*
X81889629Y-104472745D01*
X81887132Y-104488397D01*
X81870931Y-104512985D01*
X81857232Y-104530400D01*
X81828992Y-104561883D01*
X81807775Y-104575129D01*
X81789688Y-104574264D01*
X81736035Y-104560610D01*
X81696630Y-104561230D01*
X81664632Y-104576704D01*
X81653890Y-104585761D01*
X81619505Y-104617627D01*
X81619505Y-105033779D01*
X81481188Y-105033779D01*
X81481188Y-104430214D01*
X81550347Y-104430214D01*
X81591869Y-104431856D01*
X81613291Y-104437687D01*
X81619502Y-104449061D01*
X81619505Y-104449398D01*
X81622439Y-104461313D01*
X81635704Y-104459759D01*
X81654084Y-104451163D01*
X81692046Y-104435168D01*
X81722872Y-104425545D01*
X81762536Y-104423078D01*
X81809460Y-104429630D01*
X81809460Y-104429630D01*
G37*
X81809460Y-104429630D02*
X81852711Y-104442845D01*
X81880558Y-104459541D01*
X81889629Y-104472745D01*
X81887132Y-104488397D01*
X81870931Y-104512985D01*
X81857232Y-104530400D01*
X81828992Y-104561883D01*
X81807775Y-104575129D01*
X81789688Y-104574264D01*
X81736035Y-104560610D01*
X81696630Y-104561230D01*
X81664632Y-104576704D01*
X81653890Y-104585761D01*
X81619505Y-104617627D01*
X81619505Y-105033779D01*
X81481188Y-105033779D01*
X81481188Y-104430214D01*
X81550347Y-104430214D01*
X81591869Y-104431856D01*
X81613291Y-104437687D01*
X81619502Y-104449061D01*
X81619505Y-104449398D01*
X81622439Y-104461313D01*
X81635704Y-104459759D01*
X81654084Y-104451163D01*
X81692046Y-104435168D01*
X81722872Y-104425545D01*
X81762536Y-104423078D01*
X81809460Y-104429630D01*
G36*
X80386964Y-100261618D02*
X80443812Y-100563170D01*
X80863338Y-100736112D01*
X81114984Y-100564995D01*
X81185458Y-100517350D01*
X81249163Y-100474810D01*
X81303126Y-100439315D01*
X81344373Y-100412810D01*
X81369934Y-100397236D01*
X81376895Y-100393878D01*
X81389435Y-100402514D01*
X81416231Y-100426392D01*
X81454280Y-100462459D01*
X81500579Y-100507667D01*
X81552123Y-100558964D01*
X81605909Y-100613301D01*
X81658935Y-100667628D01*
X81708195Y-100718895D01*
X81750687Y-100764051D01*
X81783407Y-100800046D01*
X81803351Y-100823830D01*
X81808119Y-100831790D01*
X81801257Y-100846465D01*
X81782020Y-100878614D01*
X81752430Y-100925092D01*
X81714510Y-100982756D01*
X81670282Y-101048460D01*
X81644654Y-101085936D01*
X81597941Y-101154368D01*
X81556432Y-101216120D01*
X81522140Y-101268119D01*
X81497080Y-101307292D01*
X81483264Y-101330565D01*
X81481188Y-101335455D01*
X81485895Y-101349355D01*
X81498723Y-101381750D01*
X81517738Y-101428085D01*
X81541003Y-101483806D01*
X81566584Y-101544358D01*
X81592545Y-101605186D01*
X81616950Y-101661736D01*
X81637863Y-101709452D01*
X81653349Y-101743781D01*
X81661472Y-101760168D01*
X81661952Y-101760812D01*
X81674707Y-101763941D01*
X81708677Y-101770921D01*
X81760340Y-101781067D01*
X81826176Y-101793692D01*
X81902664Y-101808109D01*
X81947290Y-101816423D01*
X82029021Y-101831984D01*
X82102843Y-101846792D01*
X82165021Y-101860036D01*
X82211822Y-101870905D01*
X82239509Y-101878589D01*
X82245074Y-101881027D01*
X82250526Y-101897530D01*
X82254924Y-101934800D01*
X82258272Y-101988480D01*
X82260574Y-102054212D01*
X82261832Y-102127637D01*
X82262048Y-102204396D01*
X82261227Y-102280132D01*
X82259371Y-102350486D01*
X82256482Y-102411100D01*
X82252565Y-102457616D01*
X82247622Y-102485675D01*
X82244657Y-102491516D01*
X82226934Y-102498517D01*
X82189381Y-102508527D01*
X82136964Y-102520369D01*
X82074652Y-102532867D01*
X82052900Y-102536910D01*
X81948024Y-102556120D01*
X81865180Y-102571591D01*
X81801630Y-102583937D01*
X81754637Y-102593773D01*
X81721463Y-102601714D01*
X81699371Y-102608376D01*
X81685624Y-102614373D01*
X81677484Y-102620319D01*
X81676345Y-102621494D01*
X81664977Y-102640426D01*
X81647635Y-102677269D01*
X81626050Y-102727513D01*
X81601954Y-102786646D01*
X81577079Y-102850156D01*
X81553157Y-102913532D01*
X81531919Y-102972262D01*
X81515097Y-103021835D01*
X81504422Y-103057739D01*
X81501627Y-103075462D01*
X81501860Y-103076083D01*
X81511331Y-103090570D01*
X81532818Y-103122444D01*
X81564063Y-103168389D01*
X81602807Y-103225085D01*
X81646793Y-103289217D01*
X81659319Y-103307442D01*
X81703984Y-103373514D01*
X81743288Y-103433800D01*
X81775088Y-103484835D01*
X81797245Y-103523160D01*
X81807617Y-103545311D01*
X81808119Y-103548032D01*
X81799405Y-103562336D01*
X81775325Y-103590672D01*
X81738976Y-103629996D01*
X81693453Y-103677261D01*
X81641852Y-103729423D01*
X81587267Y-103783435D01*
X81532794Y-103836253D01*
X81481529Y-103884831D01*
X81436567Y-103926123D01*
X81401004Y-103957085D01*
X81377935Y-103974670D01*
X81371554Y-103977541D01*
X81356699Y-103970778D01*
X81326286Y-103952539D01*
X81285268Y-103925897D01*
X81253709Y-103904452D01*
X81196525Y-103865103D01*
X81128806Y-103818771D01*
X81060880Y-103772513D01*
X81024361Y-103747755D01*
X80900752Y-103664147D01*
X80796991Y-103720250D01*
X80749720Y-103744828D01*
X80709523Y-103763931D01*
X80682326Y-103774827D01*
X80675402Y-103776343D01*
X80667077Y-103765149D01*
X80650654Y-103733517D01*
X80627357Y-103684365D01*
X80598414Y-103620610D01*
X80565050Y-103545171D01*
X80528491Y-103460964D01*
X80489964Y-103370908D01*
X80450694Y-103277921D01*
X80411908Y-103184920D01*
X80374830Y-103094823D01*
X80340689Y-103010548D01*
X80310708Y-102935013D01*
X80286116Y-102871134D01*
X80268136Y-102821831D01*
X80257997Y-102790021D01*
X80256366Y-102779096D01*
X80269291Y-102765161D01*
X80297589Y-102742540D01*
X80335346Y-102715933D01*
X80338515Y-102713828D01*
X80436100Y-102635714D01*
X80514786Y-102544582D01*
X80573891Y-102443345D01*
X80612732Y-102334918D01*
X80630628Y-102222214D01*
X80626897Y-102108148D01*
X80600857Y-101995634D01*
X80551825Y-101887585D01*
X80537400Y-101863945D01*
X80462369Y-101768487D01*
X80373730Y-101691832D01*
X80274549Y-101634380D01*
X80167895Y-101596529D01*
X80056836Y-101578678D01*
X79944439Y-101581225D01*
X79833773Y-101604570D01*
X79727906Y-101649110D01*
X79629905Y-101715245D01*
X79599590Y-101742087D01*
X79522438Y-101826112D01*
X79466218Y-101914566D01*
X79427653Y-102013715D01*
X79406174Y-102111903D01*
X79400872Y-102222297D01*
X79418552Y-102333240D01*
X79457419Y-102440981D01*
X79515677Y-102541769D01*
X79591531Y-102631856D01*
X79683183Y-102707492D01*
X79695228Y-102715464D01*
X79733389Y-102741574D01*
X79762399Y-102764195D01*
X79776268Y-102778639D01*
X79776469Y-102779096D01*
X79773492Y-102794721D01*
X79761689Y-102830182D01*
X79742286Y-102882562D01*
X79716512Y-102948945D01*
X79685591Y-103026414D01*
X79650751Y-103112050D01*
X79613217Y-103202937D01*
X79574217Y-103296159D01*
X79534977Y-103388797D01*
X79496724Y-103477935D01*
X79460683Y-103560655D01*
X79428083Y-103634041D01*
X79400148Y-103695175D01*
X79378105Y-103741141D01*
X79363182Y-103769021D01*
X79357172Y-103776343D01*
X79338809Y-103770641D01*
X79304448Y-103755349D01*
X79260016Y-103733199D01*
X79235583Y-103720250D01*
X79131822Y-103664147D01*
X79008213Y-103747755D01*
X78945114Y-103790587D01*
X78876030Y-103837722D01*
X78811293Y-103882103D01*
X78778866Y-103904452D01*
X78733259Y-103935077D01*
X78694640Y-103959347D01*
X78668048Y-103974187D01*
X78659410Y-103977324D01*
X78646839Y-103968861D01*
X78619016Y-103945236D01*
X78578639Y-103908902D01*
X78528405Y-103862311D01*
X78471012Y-103807917D01*
X78434714Y-103772992D01*
X78371210Y-103710596D01*
X78316327Y-103654788D01*
X78272286Y-103607954D01*
X78241305Y-103572482D01*
X78225602Y-103550761D01*
X78224095Y-103546352D01*
X78231086Y-103529585D01*
X78250406Y-103495682D01*
X78279909Y-103448076D01*
X78317455Y-103390199D01*
X78360900Y-103325484D01*
X78373255Y-103307442D01*
X78418273Y-103241867D01*
X78458660Y-103182828D01*
X78492160Y-103133642D01*
X78516514Y-103097628D01*
X78529464Y-103078102D01*
X78530715Y-103076083D01*
X78528844Y-103060522D01*
X78518913Y-103026309D01*
X78502653Y-102977955D01*
X78481795Y-102919971D01*
X78458073Y-102856870D01*
X78433216Y-102793163D01*
X78408958Y-102733361D01*
X78387029Y-102681976D01*
X78369162Y-102643519D01*
X78357087Y-102622502D01*
X78356229Y-102621494D01*
X78348846Y-102615488D01*
X78336375Y-102609548D01*
X78316080Y-102603060D01*
X78285222Y-102595409D01*
X78241066Y-102585980D01*
X78180874Y-102574159D01*
X78101907Y-102559329D01*
X78001430Y-102540877D01*
X77979675Y-102536910D01*
X77915198Y-102524453D01*
X77858989Y-102512266D01*
X77816013Y-102501526D01*
X77791240Y-102493409D01*
X77787918Y-102491516D01*
X77782444Y-102474738D01*
X77777994Y-102437245D01*
X77774572Y-102383394D01*
X77772181Y-102317544D01*
X77770823Y-102244053D01*
X77770501Y-102167280D01*
X77771219Y-102091583D01*
X77772979Y-102021320D01*
X77775784Y-101960850D01*
X77779638Y-101914530D01*
X77784543Y-101886719D01*
X77787500Y-101881027D01*
X77803963Y-101875286D01*
X77841449Y-101865945D01*
X77896225Y-101853815D01*
X77964555Y-101839707D01*
X78042706Y-101824430D01*
X78085284Y-101816423D01*
X78166071Y-101801321D01*
X78238113Y-101787640D01*
X78297889Y-101776067D01*
X78341879Y-101767287D01*
X78366561Y-101761987D01*
X78370623Y-101760812D01*
X78377489Y-101747565D01*
X78392002Y-101715657D01*
X78412229Y-101669647D01*
X78436234Y-101614092D01*
X78462082Y-101553553D01*
X78487840Y-101492586D01*
X78511573Y-101435751D01*
X78531346Y-101387606D01*
X78545224Y-101352710D01*
X78551274Y-101335621D01*
X78551386Y-101334874D01*
X78544528Y-101321393D01*
X78525302Y-101290370D01*
X78495728Y-101244889D01*
X78457827Y-101188032D01*
X78413620Y-101122883D01*
X78387921Y-101085462D01*
X78341093Y-101016847D01*
X78299501Y-100954552D01*
X78265175Y-100901729D01*
X78240143Y-100861527D01*
X78226435Y-100837100D01*
X78224456Y-100831624D01*
X78232966Y-100818878D01*
X78256493Y-100791663D01*
X78292032Y-100753028D01*
X78336577Y-100706023D01*
X78387123Y-100653695D01*
X78440664Y-100599095D01*
X78494195Y-100545270D01*
X78544711Y-100495270D01*
X78589206Y-100452143D01*
X78624675Y-100418939D01*
X78648113Y-100398706D01*
X78655954Y-100393878D01*
X78668720Y-100400667D01*
X78699256Y-100419742D01*
X78744590Y-100449161D01*
X78801756Y-100486981D01*
X78867784Y-100531261D01*
X78917590Y-100564995D01*
X79169236Y-100736112D01*
X79378999Y-100649641D01*
X79588763Y-100563170D01*
X79645611Y-100261618D01*
X79702460Y-99960066D01*
X80330115Y-99960066D01*
X80386964Y-100261618D01*
X80386964Y-100261618D01*
G37*
X80386964Y-100261618D02*
X80443812Y-100563170D01*
X80863338Y-100736112D01*
X81114984Y-100564995D01*
X81185458Y-100517350D01*
X81249163Y-100474810D01*
X81303126Y-100439315D01*
X81344373Y-100412810D01*
X81369934Y-100397236D01*
X81376895Y-100393878D01*
X81389435Y-100402514D01*
X81416231Y-100426392D01*
X81454280Y-100462459D01*
X81500579Y-100507667D01*
X81552123Y-100558964D01*
X81605909Y-100613301D01*
X81658935Y-100667628D01*
X81708195Y-100718895D01*
X81750687Y-100764051D01*
X81783407Y-100800046D01*
X81803351Y-100823830D01*
X81808119Y-100831790D01*
X81801257Y-100846465D01*
X81782020Y-100878614D01*
X81752430Y-100925092D01*
X81714510Y-100982756D01*
X81670282Y-101048460D01*
X81644654Y-101085936D01*
X81597941Y-101154368D01*
X81556432Y-101216120D01*
X81522140Y-101268119D01*
X81497080Y-101307292D01*
X81483264Y-101330565D01*
X81481188Y-101335455D01*
X81485895Y-101349355D01*
X81498723Y-101381750D01*
X81517738Y-101428085D01*
X81541003Y-101483806D01*
X81566584Y-101544358D01*
X81592545Y-101605186D01*
X81616950Y-101661736D01*
X81637863Y-101709452D01*
X81653349Y-101743781D01*
X81661472Y-101760168D01*
X81661952Y-101760812D01*
X81674707Y-101763941D01*
X81708677Y-101770921D01*
X81760340Y-101781067D01*
X81826176Y-101793692D01*
X81902664Y-101808109D01*
X81947290Y-101816423D01*
X82029021Y-101831984D01*
X82102843Y-101846792D01*
X82165021Y-101860036D01*
X82211822Y-101870905D01*
X82239509Y-101878589D01*
X82245074Y-101881027D01*
X82250526Y-101897530D01*
X82254924Y-101934800D01*
X82258272Y-101988480D01*
X82260574Y-102054212D01*
X82261832Y-102127637D01*
X82262048Y-102204396D01*
X82261227Y-102280132D01*
X82259371Y-102350486D01*
X82256482Y-102411100D01*
X82252565Y-102457616D01*
X82247622Y-102485675D01*
X82244657Y-102491516D01*
X82226934Y-102498517D01*
X82189381Y-102508527D01*
X82136964Y-102520369D01*
X82074652Y-102532867D01*
X82052900Y-102536910D01*
X81948024Y-102556120D01*
X81865180Y-102571591D01*
X81801630Y-102583937D01*
X81754637Y-102593773D01*
X81721463Y-102601714D01*
X81699371Y-102608376D01*
X81685624Y-102614373D01*
X81677484Y-102620319D01*
X81676345Y-102621494D01*
X81664977Y-102640426D01*
X81647635Y-102677269D01*
X81626050Y-102727513D01*
X81601954Y-102786646D01*
X81577079Y-102850156D01*
X81553157Y-102913532D01*
X81531919Y-102972262D01*
X81515097Y-103021835D01*
X81504422Y-103057739D01*
X81501627Y-103075462D01*
X81501860Y-103076083D01*
X81511331Y-103090570D01*
X81532818Y-103122444D01*
X81564063Y-103168389D01*
X81602807Y-103225085D01*
X81646793Y-103289217D01*
X81659319Y-103307442D01*
X81703984Y-103373514D01*
X81743288Y-103433800D01*
X81775088Y-103484835D01*
X81797245Y-103523160D01*
X81807617Y-103545311D01*
X81808119Y-103548032D01*
X81799405Y-103562336D01*
X81775325Y-103590672D01*
X81738976Y-103629996D01*
X81693453Y-103677261D01*
X81641852Y-103729423D01*
X81587267Y-103783435D01*
X81532794Y-103836253D01*
X81481529Y-103884831D01*
X81436567Y-103926123D01*
X81401004Y-103957085D01*
X81377935Y-103974670D01*
X81371554Y-103977541D01*
X81356699Y-103970778D01*
X81326286Y-103952539D01*
X81285268Y-103925897D01*
X81253709Y-103904452D01*
X81196525Y-103865103D01*
X81128806Y-103818771D01*
X81060880Y-103772513D01*
X81024361Y-103747755D01*
X80900752Y-103664147D01*
X80796991Y-103720250D01*
X80749720Y-103744828D01*
X80709523Y-103763931D01*
X80682326Y-103774827D01*
X80675402Y-103776343D01*
X80667077Y-103765149D01*
X80650654Y-103733517D01*
X80627357Y-103684365D01*
X80598414Y-103620610D01*
X80565050Y-103545171D01*
X80528491Y-103460964D01*
X80489964Y-103370908D01*
X80450694Y-103277921D01*
X80411908Y-103184920D01*
X80374830Y-103094823D01*
X80340689Y-103010548D01*
X80310708Y-102935013D01*
X80286116Y-102871134D01*
X80268136Y-102821831D01*
X80257997Y-102790021D01*
X80256366Y-102779096D01*
X80269291Y-102765161D01*
X80297589Y-102742540D01*
X80335346Y-102715933D01*
X80338515Y-102713828D01*
X80436100Y-102635714D01*
X80514786Y-102544582D01*
X80573891Y-102443345D01*
X80612732Y-102334918D01*
X80630628Y-102222214D01*
X80626897Y-102108148D01*
X80600857Y-101995634D01*
X80551825Y-101887585D01*
X80537400Y-101863945D01*
X80462369Y-101768487D01*
X80373730Y-101691832D01*
X80274549Y-101634380D01*
X80167895Y-101596529D01*
X80056836Y-101578678D01*
X79944439Y-101581225D01*
X79833773Y-101604570D01*
X79727906Y-101649110D01*
X79629905Y-101715245D01*
X79599590Y-101742087D01*
X79522438Y-101826112D01*
X79466218Y-101914566D01*
X79427653Y-102013715D01*
X79406174Y-102111903D01*
X79400872Y-102222297D01*
X79418552Y-102333240D01*
X79457419Y-102440981D01*
X79515677Y-102541769D01*
X79591531Y-102631856D01*
X79683183Y-102707492D01*
X79695228Y-102715464D01*
X79733389Y-102741574D01*
X79762399Y-102764195D01*
X79776268Y-102778639D01*
X79776469Y-102779096D01*
X79773492Y-102794721D01*
X79761689Y-102830182D01*
X79742286Y-102882562D01*
X79716512Y-102948945D01*
X79685591Y-103026414D01*
X79650751Y-103112050D01*
X79613217Y-103202937D01*
X79574217Y-103296159D01*
X79534977Y-103388797D01*
X79496724Y-103477935D01*
X79460683Y-103560655D01*
X79428083Y-103634041D01*
X79400148Y-103695175D01*
X79378105Y-103741141D01*
X79363182Y-103769021D01*
X79357172Y-103776343D01*
X79338809Y-103770641D01*
X79304448Y-103755349D01*
X79260016Y-103733199D01*
X79235583Y-103720250D01*
X79131822Y-103664147D01*
X79008213Y-103747755D01*
X78945114Y-103790587D01*
X78876030Y-103837722D01*
X78811293Y-103882103D01*
X78778866Y-103904452D01*
X78733259Y-103935077D01*
X78694640Y-103959347D01*
X78668048Y-103974187D01*
X78659410Y-103977324D01*
X78646839Y-103968861D01*
X78619016Y-103945236D01*
X78578639Y-103908902D01*
X78528405Y-103862311D01*
X78471012Y-103807917D01*
X78434714Y-103772992D01*
X78371210Y-103710596D01*
X78316327Y-103654788D01*
X78272286Y-103607954D01*
X78241305Y-103572482D01*
X78225602Y-103550761D01*
X78224095Y-103546352D01*
X78231086Y-103529585D01*
X78250406Y-103495682D01*
X78279909Y-103448076D01*
X78317455Y-103390199D01*
X78360900Y-103325484D01*
X78373255Y-103307442D01*
X78418273Y-103241867D01*
X78458660Y-103182828D01*
X78492160Y-103133642D01*
X78516514Y-103097628D01*
X78529464Y-103078102D01*
X78530715Y-103076083D01*
X78528844Y-103060522D01*
X78518913Y-103026309D01*
X78502653Y-102977955D01*
X78481795Y-102919971D01*
X78458073Y-102856870D01*
X78433216Y-102793163D01*
X78408958Y-102733361D01*
X78387029Y-102681976D01*
X78369162Y-102643519D01*
X78357087Y-102622502D01*
X78356229Y-102621494D01*
X78348846Y-102615488D01*
X78336375Y-102609548D01*
X78316080Y-102603060D01*
X78285222Y-102595409D01*
X78241066Y-102585980D01*
X78180874Y-102574159D01*
X78101907Y-102559329D01*
X78001430Y-102540877D01*
X77979675Y-102536910D01*
X77915198Y-102524453D01*
X77858989Y-102512266D01*
X77816013Y-102501526D01*
X77791240Y-102493409D01*
X77787918Y-102491516D01*
X77782444Y-102474738D01*
X77777994Y-102437245D01*
X77774572Y-102383394D01*
X77772181Y-102317544D01*
X77770823Y-102244053D01*
X77770501Y-102167280D01*
X77771219Y-102091583D01*
X77772979Y-102021320D01*
X77775784Y-101960850D01*
X77779638Y-101914530D01*
X77784543Y-101886719D01*
X77787500Y-101881027D01*
X77803963Y-101875286D01*
X77841449Y-101865945D01*
X77896225Y-101853815D01*
X77964555Y-101839707D01*
X78042706Y-101824430D01*
X78085284Y-101816423D01*
X78166071Y-101801321D01*
X78238113Y-101787640D01*
X78297889Y-101776067D01*
X78341879Y-101767287D01*
X78366561Y-101761987D01*
X78370623Y-101760812D01*
X78377489Y-101747565D01*
X78392002Y-101715657D01*
X78412229Y-101669647D01*
X78436234Y-101614092D01*
X78462082Y-101553553D01*
X78487840Y-101492586D01*
X78511573Y-101435751D01*
X78531346Y-101387606D01*
X78545224Y-101352710D01*
X78551274Y-101335621D01*
X78551386Y-101334874D01*
X78544528Y-101321393D01*
X78525302Y-101290370D01*
X78495728Y-101244889D01*
X78457827Y-101188032D01*
X78413620Y-101122883D01*
X78387921Y-101085462D01*
X78341093Y-101016847D01*
X78299501Y-100954552D01*
X78265175Y-100901729D01*
X78240143Y-100861527D01*
X78226435Y-100837100D01*
X78224456Y-100831624D01*
X78232966Y-100818878D01*
X78256493Y-100791663D01*
X78292032Y-100753028D01*
X78336577Y-100706023D01*
X78387123Y-100653695D01*
X78440664Y-100599095D01*
X78494195Y-100545270D01*
X78544711Y-100495270D01*
X78589206Y-100452143D01*
X78624675Y-100418939D01*
X78648113Y-100398706D01*
X78655954Y-100393878D01*
X78668720Y-100400667D01*
X78699256Y-100419742D01*
X78744590Y-100449161D01*
X78801756Y-100486981D01*
X78867784Y-100531261D01*
X78917590Y-100564995D01*
X79169236Y-100736112D01*
X79378999Y-100649641D01*
X79588763Y-100563170D01*
X79645611Y-100261618D01*
X79702460Y-99960066D01*
X80330115Y-99960066D01*
X80386964Y-100261618D01*
D15*
X87503000Y-99370500D02*
X105403000Y-99370500D01*
X105403000Y-99370500D02*
X105403000Y-94050500D01*
X105403000Y-94050500D02*
X84843000Y-94050500D01*
X84843000Y-94050500D02*
X84843000Y-96710500D01*
X84843000Y-96710500D02*
X87503000Y-96710500D01*
X87503000Y-96710500D02*
X87503000Y-99370500D01*
X86233000Y-99370500D02*
X84843000Y-99370500D01*
X84843000Y-99370500D02*
X84843000Y-97980500D01*
D16*
X83756500Y-62801500D02*
X83756500Y-67881500D01*
X83756500Y-67881500D02*
X86296500Y-67881500D01*
X86296500Y-67881500D02*
X86296500Y-62801500D01*
X86576500Y-59981500D02*
X86576500Y-61531500D01*
X86296500Y-62801500D02*
X83756500Y-62801500D01*
X83476500Y-61531500D02*
X83476500Y-59981500D01*
X83476500Y-59981500D02*
X86576500Y-59981500D01*
X87058500Y-62801500D02*
X87058500Y-67881500D01*
X87058500Y-67881500D02*
X89598500Y-67881500D01*
X89598500Y-67881500D02*
X89598500Y-62801500D01*
X89878500Y-59981500D02*
X89878500Y-61531500D01*
X89598500Y-62801500D02*
X87058500Y-62801500D01*
X86778500Y-61531500D02*
X86778500Y-59981500D01*
X86778500Y-59981500D02*
X89878500Y-59981500D01*
X86868000Y-81915000D02*
X86868000Y-79375000D01*
X86588000Y-84735000D02*
X86588000Y-83185000D01*
X86868000Y-81915000D02*
X89408000Y-81915000D01*
X89688000Y-83185000D02*
X89688000Y-84735000D01*
X89688000Y-84735000D02*
X86588000Y-84735000D01*
X89408000Y-81915000D02*
X89408000Y-79375000D01*
X89408000Y-79375000D02*
X86868000Y-79375000D01*
X92138500Y-82105500D02*
X92138500Y-79565500D01*
X91858500Y-84925500D02*
X91858500Y-83375500D01*
X92138500Y-82105500D02*
X94678500Y-82105500D01*
X94958500Y-83375500D02*
X94958500Y-84925500D01*
X94958500Y-84925500D02*
X91858500Y-84925500D01*
X94678500Y-82105500D02*
X94678500Y-79565500D01*
X94678500Y-79565500D02*
X92138500Y-79565500D01*
X75565000Y-106807000D02*
X75565000Y-56007000D01*
X70485000Y-58547000D02*
X70485000Y-106807000D01*
X75565000Y-106807000D02*
X70485000Y-106807000D01*
X75565000Y-56007000D02*
X73025000Y-56007000D01*
X73025000Y-56007000D02*
X73025000Y-58547000D01*
X73025000Y-58547000D02*
X70485000Y-58547000D01*
X111125000Y-106807000D02*
X111125000Y-56007000D01*
X106045000Y-58547000D02*
X106045000Y-106807000D01*
X111125000Y-106807000D02*
X106045000Y-106807000D01*
X111125000Y-56007000D02*
X108585000Y-56007000D01*
X108585000Y-56007000D02*
X108585000Y-58547000D01*
X108585000Y-58547000D02*
X106045000Y-58547000D01*
X92138500Y-62801500D02*
X92138500Y-67881500D01*
X92138500Y-67881500D02*
X94678500Y-67881500D01*
X94678500Y-67881500D02*
X94678500Y-62801500D01*
X94958500Y-59981500D02*
X94958500Y-61531500D01*
X94678500Y-62801500D02*
X92138500Y-62801500D01*
X91858500Y-61531500D02*
X91858500Y-59981500D01*
X91858500Y-59981500D02*
X94958500Y-59981500D01*
X95440500Y-62801500D02*
X95440500Y-67881500D01*
X95440500Y-67881500D02*
X97980500Y-67881500D01*
X97980500Y-67881500D02*
X97980500Y-62801500D01*
X98260500Y-59981500D02*
X98260500Y-61531500D01*
X97980500Y-62801500D02*
X95440500Y-62801500D01*
X95160500Y-61531500D02*
X95160500Y-59981500D01*
X95160500Y-59981500D02*
X98260500Y-59981500D01*
X95567500Y-74739500D02*
X95567500Y-72199500D01*
X95287500Y-77559500D02*
X95287500Y-76009500D01*
X95567500Y-74739500D02*
X98107500Y-74739500D01*
X98387500Y-76009500D02*
X98387500Y-77559500D01*
X98387500Y-77559500D02*
X95287500Y-77559500D01*
X98107500Y-74739500D02*
X98107500Y-72199500D01*
X98107500Y-72199500D02*
X95567500Y-72199500D01*
X92265500Y-74739500D02*
X92265500Y-72199500D01*
X91985500Y-77559500D02*
X91985500Y-76009500D01*
X92265500Y-74739500D02*
X94805500Y-74739500D01*
X95085500Y-76009500D02*
X95085500Y-77559500D01*
X95085500Y-77559500D02*
X91985500Y-77559500D01*
X94805500Y-74739500D02*
X94805500Y-72199500D01*
X94805500Y-72199500D02*
X92265500Y-72199500D01*
X83375500Y-74739500D02*
X83375500Y-72199500D01*
X83095500Y-77559500D02*
X83095500Y-76009500D01*
X83375500Y-74739500D02*
X85915500Y-74739500D01*
X86195500Y-76009500D02*
X86195500Y-77559500D01*
X86195500Y-77559500D02*
X83095500Y-77559500D01*
X85915500Y-74739500D02*
X85915500Y-72199500D01*
X85915500Y-72199500D02*
X83375500Y-72199500D01*
X86677500Y-74739500D02*
X86677500Y-72199500D01*
X86397500Y-77559500D02*
X86397500Y-76009500D01*
X86677500Y-74739500D02*
X89217500Y-74739500D01*
X89497500Y-76009500D02*
X89497500Y-77559500D01*
X89497500Y-77559500D02*
X86397500Y-77559500D01*
X89217500Y-74739500D02*
X89217500Y-72199500D01*
X89217500Y-72199500D02*
X86677500Y-72199500D01*
X83566000Y-81915000D02*
X83566000Y-79375000D01*
X83286000Y-84735000D02*
X83286000Y-83185000D01*
X83566000Y-81915000D02*
X86106000Y-81915000D01*
X86386000Y-83185000D02*
X86386000Y-84735000D01*
X86386000Y-84735000D02*
X83286000Y-84735000D01*
X86106000Y-81915000D02*
X86106000Y-79375000D01*
X86106000Y-79375000D02*
X83566000Y-79375000D01*
X95440500Y-82105500D02*
X95440500Y-79565500D01*
X95160500Y-84925500D02*
X95160500Y-83375500D01*
X95440500Y-82105500D02*
X97980500Y-82105500D01*
X98260500Y-83375500D02*
X98260500Y-84925500D01*
X98260500Y-84925500D02*
X95160500Y-84925500D01*
X97980500Y-82105500D02*
X97980500Y-79565500D01*
X97980500Y-79565500D02*
X95440500Y-79565500D01*
X83629500Y-89725500D02*
X83629500Y-87185500D01*
X83349500Y-92545500D02*
X83349500Y-90995500D01*
X83629500Y-89725500D02*
X86169500Y-89725500D01*
X86449500Y-90995500D02*
X86449500Y-92545500D01*
X86449500Y-92545500D02*
X83349500Y-92545500D01*
X86169500Y-89725500D02*
X86169500Y-87185500D01*
X86169500Y-87185500D02*
X83629500Y-87185500D01*
X86931500Y-89725500D02*
X86931500Y-87185500D01*
X86651500Y-92545500D02*
X86651500Y-90995500D01*
X86931500Y-89725500D02*
X89471500Y-89725500D01*
X89751500Y-90995500D02*
X89751500Y-92545500D01*
X89751500Y-92545500D02*
X86651500Y-92545500D01*
X89471500Y-89725500D02*
X89471500Y-87185500D01*
X89471500Y-87185500D02*
X86931500Y-87185500D01*
X95186500Y-89725500D02*
X95186500Y-87185500D01*
X94906500Y-92545500D02*
X94906500Y-90995500D01*
X95186500Y-89725500D02*
X97726500Y-89725500D01*
X98006500Y-90995500D02*
X98006500Y-92545500D01*
X98006500Y-92545500D02*
X94906500Y-92545500D01*
X97726500Y-89725500D02*
X97726500Y-87185500D01*
X97726500Y-87185500D02*
X95186500Y-87185500D01*
X91884500Y-89725500D02*
X91884500Y-87185500D01*
X91604500Y-92545500D02*
X91604500Y-90995500D01*
X91884500Y-89725500D02*
X94424500Y-89725500D01*
X94704500Y-90995500D02*
X94704500Y-92545500D01*
X94704500Y-92545500D02*
X91604500Y-92545500D01*
X94424500Y-89725500D02*
X94424500Y-87185500D01*
X94424500Y-87185500D02*
X91884500Y-87185500D01*
X76327000Y-96647000D02*
X76327000Y-94107000D01*
X76047000Y-99467000D02*
X76047000Y-97917000D01*
X76327000Y-96647000D02*
X78867000Y-96647000D01*
X79147000Y-97917000D02*
X79147000Y-99467000D01*
X79147000Y-99467000D02*
X76047000Y-99467000D01*
X78867000Y-96647000D02*
X78867000Y-94107000D01*
X78867000Y-94107000D02*
X76327000Y-94107000D01*
D15*
X87503000Y-104704500D02*
X105403000Y-104704500D01*
X105403000Y-104704500D02*
X105403000Y-99384500D01*
X105403000Y-99384500D02*
X84843000Y-99384500D01*
X84843000Y-99384500D02*
X84843000Y-102044500D01*
X84843000Y-102044500D02*
X87503000Y-102044500D01*
X87503000Y-102044500D02*
X87503000Y-104704500D01*
X86233000Y-104704500D02*
X84843000Y-104704500D01*
X84843000Y-104704500D02*
X84843000Y-103314500D01*
M02*
