G04 #@! TF.FileFunction,Soldermask,Top*
%FSLAX46Y46*%
G04 Gerber Fmt 4.6, Leading zero omitted, Abs format (unit mm)*
G04 Created by KiCad (PCBNEW 4.0.5) date Mon Feb  6 23:02:00 2017*
%MOMM*%
%LPD*%
G01*
G04 APERTURE LIST*
%ADD10C,0.100000*%
%ADD11R,2.100000X2.100000*%
%ADD12O,2.100000X2.100000*%
%ADD13R,2.432000X2.127200*%
%ADD14O,2.432000X2.127200*%
%ADD15R,2.432000X2.432000*%
%ADD16O,2.432000X2.432000*%
%ADD17R,2.127200X2.127200*%
%ADD18O,2.127200X2.127200*%
G04 APERTURE END LIST*
D10*
D11*
X86233000Y-97980500D03*
D12*
X86233000Y-95440500D03*
X88773000Y-97980500D03*
X88773000Y-95440500D03*
X91313000Y-97980500D03*
X91313000Y-95440500D03*
X93853000Y-97980500D03*
X93853000Y-95440500D03*
X96393000Y-97980500D03*
X96393000Y-95440500D03*
X98933000Y-97980500D03*
X98933000Y-95440500D03*
X101473000Y-97980500D03*
X101473000Y-95440500D03*
X104013000Y-97980500D03*
X104013000Y-95440500D03*
D13*
X85026500Y-61531500D03*
D14*
X85026500Y-64071500D03*
X85026500Y-66611500D03*
D13*
X88328500Y-61531500D03*
D14*
X88328500Y-64071500D03*
X88328500Y-66611500D03*
D15*
X88138000Y-83185000D03*
D16*
X88138000Y-80645000D03*
D15*
X93408500Y-83375500D03*
D16*
X93408500Y-80835500D03*
D17*
X71755000Y-57277000D03*
D18*
X74295000Y-57277000D03*
X71755000Y-59817000D03*
X74295000Y-59817000D03*
X71755000Y-62357000D03*
X74295000Y-62357000D03*
X71755000Y-64897000D03*
X74295000Y-64897000D03*
X71755000Y-67437000D03*
X74295000Y-67437000D03*
X71755000Y-69977000D03*
X74295000Y-69977000D03*
X71755000Y-72517000D03*
X74295000Y-72517000D03*
X71755000Y-75057000D03*
X74295000Y-75057000D03*
X71755000Y-77597000D03*
X74295000Y-77597000D03*
X71755000Y-80137000D03*
X74295000Y-80137000D03*
X71755000Y-82677000D03*
X74295000Y-82677000D03*
X71755000Y-85217000D03*
X74295000Y-85217000D03*
X71755000Y-87757000D03*
X74295000Y-87757000D03*
X71755000Y-90297000D03*
X74295000Y-90297000D03*
X71755000Y-92837000D03*
X74295000Y-92837000D03*
X71755000Y-95377000D03*
X74295000Y-95377000D03*
X71755000Y-97917000D03*
X74295000Y-97917000D03*
X71755000Y-100457000D03*
X74295000Y-100457000D03*
X71755000Y-102997000D03*
X74295000Y-102997000D03*
X71755000Y-105537000D03*
X74295000Y-105537000D03*
D17*
X107315000Y-57277000D03*
D18*
X109855000Y-57277000D03*
X107315000Y-59817000D03*
X109855000Y-59817000D03*
X107315000Y-62357000D03*
X109855000Y-62357000D03*
X107315000Y-64897000D03*
X109855000Y-64897000D03*
X107315000Y-67437000D03*
X109855000Y-67437000D03*
X107315000Y-69977000D03*
X109855000Y-69977000D03*
X107315000Y-72517000D03*
X109855000Y-72517000D03*
X107315000Y-75057000D03*
X109855000Y-75057000D03*
X107315000Y-77597000D03*
X109855000Y-77597000D03*
X107315000Y-80137000D03*
X109855000Y-80137000D03*
X107315000Y-82677000D03*
X109855000Y-82677000D03*
X107315000Y-85217000D03*
X109855000Y-85217000D03*
X107315000Y-87757000D03*
X109855000Y-87757000D03*
X107315000Y-90297000D03*
X109855000Y-90297000D03*
X107315000Y-92837000D03*
X109855000Y-92837000D03*
X107315000Y-95377000D03*
X109855000Y-95377000D03*
X107315000Y-97917000D03*
X109855000Y-97917000D03*
X107315000Y-100457000D03*
X109855000Y-100457000D03*
X107315000Y-102997000D03*
X109855000Y-102997000D03*
X107315000Y-105537000D03*
X109855000Y-105537000D03*
D13*
X93408500Y-61531500D03*
D14*
X93408500Y-64071500D03*
X93408500Y-66611500D03*
D13*
X96710500Y-61531500D03*
D14*
X96710500Y-64071500D03*
X96710500Y-66611500D03*
D15*
X96837500Y-76009500D03*
D16*
X96837500Y-73469500D03*
D15*
X93535500Y-76009500D03*
D16*
X93535500Y-73469500D03*
D15*
X84645500Y-76009500D03*
D16*
X84645500Y-73469500D03*
D15*
X87947500Y-76009500D03*
D16*
X87947500Y-73469500D03*
D15*
X84836000Y-83185000D03*
D16*
X84836000Y-80645000D03*
D15*
X96710500Y-83375500D03*
D16*
X96710500Y-80835500D03*
D15*
X84899500Y-90995500D03*
D16*
X84899500Y-88455500D03*
D15*
X88201500Y-90995500D03*
D16*
X88201500Y-88455500D03*
D15*
X96456500Y-90995500D03*
D16*
X96456500Y-88455500D03*
D15*
X93154500Y-90995500D03*
D16*
X93154500Y-88455500D03*
D15*
X77597000Y-97917000D03*
D16*
X77597000Y-95377000D03*
D11*
X86233000Y-103314500D03*
D12*
X86233000Y-100774500D03*
X88773000Y-103314500D03*
X88773000Y-100774500D03*
X91313000Y-103314500D03*
X91313000Y-100774500D03*
X93853000Y-103314500D03*
X93853000Y-100774500D03*
X96393000Y-103314500D03*
X96393000Y-100774500D03*
X98933000Y-103314500D03*
X98933000Y-100774500D03*
X101473000Y-103314500D03*
X101473000Y-100774500D03*
X104013000Y-103314500D03*
X104013000Y-100774500D03*
M02*
